<?xml version="1.0" encoding="utf-8"?>
<!-- Generator: Adobe Illustrator 24.2.3, SVG Export Plug-In . SVG Version: 6.00 Build 0)  -->
<svg version="1.1" id="Layer_1" xmlns="http://www.w3.org/2000/svg" xmlns:xlink="http://www.w3.org/1999/xlink" x="0px" y="0px"
	 viewBox="0 0 195 162.37" style="enable-background:new 0 0 195 162.37;" xml:space="preserve">
<style type="text/css">
	.st0{fill:#EF4848;}
	.st1{fill:none;stroke:#1A1818;stroke-miterlimit:10;}
	.st2{fill:#0C142B;stroke:#FFFFFF;stroke-linejoin:bevel;}
	.st3{fill:#FFFFFF;stroke:#1A1818;stroke-miterlimit:10;}
	.st4{fill:#0C142B;stroke:#FFFFFF;stroke-miterlimit:10;}
	.st5{fill:none;stroke:#1A1818;stroke-linejoin:bevel;}
	.st6{fill:#FFFFFF;}
	.st7{fill:#0C142B;}
	.st8{fill:none;stroke:#FFFFFF;}
	.st9{fill:#F58E94;}
	.st10{clip-path:url(#SVGID_2_);}
	.st11{fill:none;stroke:#FFFFFF;stroke-width:2;stroke-miterlimit:10;}
	.st12{fill:none;stroke:#1A1818;stroke-width:1.6;stroke-miterlimit:10;}
	.st13{fill:#FFFFFF;stroke:#0C142B;stroke-width:1.6;stroke-linejoin:bevel;}
	.st14{fill:#FFFFFF;stroke:#1A1818;stroke-width:1.6;stroke-miterlimit:10;}
	.st15{fill:#FFFFFF;stroke:#0C142B;stroke-width:1.6;stroke-miterlimit:10;}
	.st16{fill:none;stroke:#1A1818;stroke-width:1.6;stroke-linejoin:bevel;}
	.st17{fill:#FFFFFF;stroke:#0C142B;stroke-width:1.6;}
	.st18{fill:#3A1212;}
	.st19{clip-path:url(#SVGID_4_);}
</style>
<g id="Group_64" transform="translate(-40 -48.317)">
	<g id="Group_33" transform="translate(74.778 49)">
		<g id="Group_30_1_" transform="translate(0 0)">
			<g id="Group_26_3_">
				<path id="Path_189_3_" class="st1" d="M50.38,29.15H33.7l-8.34,14.45l8.34,14.45h16.68l8.34-14.45L50.38,29.15z"/>
				<path id="Path_190_3_" class="st2" d="M25.36,72.48l25.02-14.44l8.34-14.45L33.7,58.04L25.36,72.48z"/>
				
					<rect id="Rectangle_16_3_" x="27.59" y="35.25" transform="matrix(0.866 -0.5 0.5 0.866 -16.1652 26.858)" class="st1" width="28.89" height="16.68"/>
				<path id="Path_191_3_" class="st3" d="M75.62,14.7H58.94L50.6,29.15l8.34,14.45h16.68l8.34-14.45L75.62,14.7z"/>
				<path id="Path_192_3_" class="st3" d="M50.6,58.04l25.02-14.45l8.34-14.45L58.94,43.59L50.6,58.04z"/>
				
					<rect id="Rectangle_17_3_" x="52.83" y="20.81" transform="matrix(0.866 -0.5 0.5 0.866 -5.5611 37.5433)" class="st3" width="28.89" height="16.68"/>
				<path id="Path_193_3_" class="st1" d="M100.91,0.26H84.23L75.89,14.7l8.34,14.45h16.68l8.34-14.45L100.91,0.26z"/>
				<path id="Path_194_3_" class="st4" d="M75.63,43.69H58.95l-8.34,14.45l8.34,14.45h16.68l8.34-14.45L75.63,43.69z"/>
				<path id="Path_195_3_" class="st1" d="M100.91,29.15H84.23l-8.34,14.45l8.34,14.45h16.68l8.34-14.45L100.91,29.15z"/>
				<path id="Path_196_3_" class="st5" d="M84.09,29.15L59.07,43.59h16.68l25.02-14.45H84.09z"/>
				<path id="Path_197_3_" class="st5" d="M75.89,72.48l25.02-14.44l8.34-14.45L84.24,58.04L75.89,72.48z"/>
				
					<rect id="Rectangle_18_2_" x="78.13" y="35.25" transform="matrix(0.866 -0.5 0.5 0.866 -9.3941 52.128)" class="st4" width="28.89" height="16.68"/>
				<path id="Path_198_3_" class="st4" d="M100.91,58.04H84.23l-8.34,14.45l8.34,14.45h16.68l8.34-14.45L100.91,58.04z"/>
				<path id="Path_199_3_" class="st1" d="M126.21,43.59h-16.68l-8.34,14.45l8.34,14.45h16.68l8.34-14.45L126.21,43.59z"/>
				<path id="Path_200_3_" class="st2" d="M109.41,43.59L84.39,58.04h16.68l25.02-14.45L109.41,43.59z"/>
				
					<rect id="Rectangle_19_3_" x="103.43" y="49.7" transform="matrix(0.866 -0.5 0.5 0.866 -13.2273 66.7123)" class="st1" width="28.89" height="16.68"/>
				<path id="Path_201_3_" class="st2" d="M83.4,0.26L58.38,14.7L33.36,29.15h0.06L8.39,43.59h16.68l25.02-14.45h-0.06L75.06,14.7
					l0,0l25.02-14.45L83.4,0.26z"/>
				<path id="Path_202_3_" class="st2" d="M75.89,43.59l25.02-14.45l8.34-14.45L84.24,29.15L75.89,43.59z"/>
				
					<rect id="Rectangle_20_2_" x="78.13" y="6.36" transform="matrix(0.866 -0.5 0.5 0.866 5.0514 48.2574)" class="st4" width="28.89" height="16.68"/>
				<path id="Path_203_3_" class="st6" d="M69.52,61.51c0.02-0.46-0.18-0.9-0.54-1.19c-0.58-0.39-1.22-0.69-1.9-0.88
					c-0.76-0.25-1.5-0.54-2.22-0.88c-1.87-0.92-2.8-2.18-2.8-3.78c-0.01-0.76,0.24-1.51,0.7-2.11c0.52-0.65,1.2-1.14,1.98-1.43
					c0.92-0.35,1.89-0.52,2.87-0.51c0.96-0.02,1.91,0.17,2.79,0.55c0.78,0.33,1.44,0.88,1.92,1.58c0.46,0.69,0.7,1.51,0.68,2.34
					h-3.47c0.03-0.51-0.17-1.01-0.54-1.37c-0.41-0.34-0.93-0.51-1.46-0.48c-0.52-0.03-1.04,0.12-1.47,0.41
					c-0.56,0.37-0.71,1.12-0.34,1.68c0.1,0.15,0.24,0.28,0.39,0.37c0.64,0.42,1.35,0.73,2.09,0.93c0.85,0.26,1.68,0.61,2.46,1.04
					c1.43,0.69,2.34,2.13,2.34,3.71c0.05,1.17-0.49,2.28-1.43,2.97c-1.15,0.78-2.53,1.16-3.91,1.08c-1.09,0.02-2.17-0.2-3.17-0.63
					c-0.87-0.35-1.61-0.95-2.14-1.72c-0.48-0.75-0.73-1.63-0.72-2.52h3.49c-0.05,0.63,0.17,1.25,0.6,1.71
					c0.56,0.42,1.25,0.61,1.95,0.55c0.48,0.03,0.96-0.1,1.36-0.37C69.36,62.31,69.54,61.92,69.52,61.51z"/>
				<path id="Path_204_3_" class="st6" d="M89.34,65.27l3.22,10.03l3.21-10.03h4.58v14.42h-3.48v-3.37l0.34-6.89l-3.49,10.26h-2.3
					l-3.5-10.27l0.34,6.9v3.37h-3.48V65.27H89.34z"/>
				<path id="Path_205_3_" class="st2" d="M134.77,29.15l-25.02,14.45h16.68l25.02-14.45H134.77z"/>
				<path id="Path_206_3_" class="st2" d="M134.77,58.04l-0.03,0.05l-24.94,14.4l-8.34,14.45l25.02-14.45l0.03-0.05l24.94-14.4
					l8.34-14.45L134.77,58.04z"/>
				
					<rect id="Rectangle_21_3_" x="128.67" y="35.25" transform="matrix(0.866 -0.5 0.5 0.866 -2.6232 77.3975)" class="st4" width="28.89" height="16.68"/>
				<path id="Path_207_3_" class="st4" d="M25.02,43.59H8.34L0,58.04l8.34,14.45h16.68l8.34-14.45L25.02,43.59z"/>
				<path id="Path_208_3_" class="st4" d="M50.35,29.15H33.67l-8.34,14.45l8.34,14.45h16.68l8.34-14.45L50.35,29.15z"/>
				<path id="Path_209_3_" class="st4" d="M75.62,14.7H58.94L50.6,29.15l8.34,14.45h16.68l8.34-14.45L75.62,14.7z"/>
				<path id="Path_210_3_" class="st6" d="M14.48,60.36v4.89H11V50.83h5.76c1.01-0.02,2.01,0.19,2.93,0.61
					c0.81,0.37,1.5,0.98,1.97,1.73c0.47,0.77,0.71,1.65,0.7,2.55c0.05,1.3-0.51,2.54-1.51,3.37c-1.19,0.9-2.66,1.35-4.15,1.26
					L14.48,60.36z M14.48,57.67h2.28c0.56,0.04,1.11-0.14,1.54-0.51c0.37-0.38,0.56-0.9,0.53-1.43c0.03-0.59-0.17-1.16-0.54-1.61
					c-0.38-0.41-0.92-0.64-1.49-0.61h-2.32V57.67z"/>
				<path id="Path_211_3_" class="st6" d="M41.61,45.7h-1.88v5.1h-3.48V36.38h5.68c1.43-0.08,2.84,0.32,4.01,1.14
					c0.97,0.78,1.51,1.97,1.45,3.21c0.03,0.87-0.18,1.73-0.61,2.49c-0.46,0.71-1.13,1.27-1.91,1.6l3.01,5.82v0.15h-3.72L41.61,45.7z
					 M39.73,43.03h2.2c0.55,0.04,1.09-0.15,1.49-0.52c0.35-0.4,0.53-0.92,0.5-1.45c0.03-0.54-0.15-1.06-0.51-1.46
					c-0.4-0.38-0.94-0.57-1.49-0.53h-2.2L39.73,43.03z"/>
				<path id="Path_212_3_" class="st6" d="M69.04,36.36h-3.47V21.94h3.47V36.36z"/>
				<path id="Path_213_3_" class="st4" d="M126.21,43.59h-16.68l-8.34,14.45l8.34,14.45h16.68l8.34-14.45L126.21,43.59z"/>
				<path id="Path_214_3_" class="st6" d="M120.18,62.55h-4.76l-0.83,2.69h-3.71l5.29-14.42h3.27l5.33,14.42h-3.73L120.18,62.55z
					 M116.25,59.87h3.1l-1.55-5L116.25,59.87z"/>
			</g>
		</g>
	</g>
	<g id="Group_63" transform="translate(40 148.667)">
		<g id="Group_49_1_" transform="translate(0 0)">
			<g id="Group_34_4_" transform="translate(0 11.532)">
				<path id="Path_225_4_" class="st18" d="M0,0.26v2h8.45v5.02H0v2h10.45V0.26H0z"/>
			</g>
			<path id="Path_226_4_" class="st18" d="M0,17.3h6.94v-2H0V17.3z"/>
			<g id="Group_35_4_" transform="translate(1.431 0)">
				<path id="Path_227_4_" class="st18" d="M0,10.28h9.02V3.68h5.02v3.08h2V1.68H7.02v6.59H2V0.25H0V10.28z"/>
			</g>
			<g id="Group_36_4_" transform="translate(4.94)">
				<path id="Path_228_4_" class="st18" d="M0,6.77h2V0.26H0V6.77z"/>
			</g>
			<g id="Group_37_4_" transform="translate(11.959 11.532)">
				<path id="Path_229_4_" class="st18" d="M10.45,9.28v-2H2V2.25h8.45v-2H0v9.02L10.45,9.28z"/>
			</g>
			<path id="Path_230_4_" class="st18" d="M22.41,15.3h-6.94v2h6.94V15.3z"/>
			<g id="Group_38_4_" transform="translate(11.959 0.002)">
				<path id="Path_231_4_" class="st18" d="M7.02,0.26v8.02H2V5.2H0v5.08h9.02V0.26H7.02z"/>
			</g>
			<g id="Group_39_4_" transform="translate(0 11.532)">
				<path id="Path_232_4_" class="st6" d="M0,0.26v2h8.45v5.02H0v2h10.45V0.26H0z"/>
			</g>
			<path id="Path_233_4_" class="st6" d="M0,17.3h6.94v-2H0V17.3z"/>
			<g id="Group_40_4_" transform="translate(1.431 0)">
				<path id="Path_234_4_" class="st6" d="M0,10.28h9.02V3.68h5.02v3.08h2V1.68H7.02v6.59H2V0.25H0V10.28z"/>
			</g>
			<g id="Group_41_4_" transform="translate(4.94)">
				<path id="Path_235_4_" class="st6" d="M0,6.77h2V0.26H0V6.77z"/>
			</g>
			<g id="Group_42_4_" transform="translate(11.959 11.532)">
				<path id="Path_236_4_" class="st6" d="M10.45,9.28v-2H2V2.25h8.45v-2H0v9.02L10.45,9.28z"/>
			</g>
			<path id="Path_237_4_" class="st6" d="M22.41,15.3h-6.94v2h6.94V15.3z"/>
			<g id="Group_43_4_" transform="translate(11.959 0.002)">
				<path id="Path_238_4_" class="st6" d="M7.02,0.26v8.02H2V5.2H0v5.08h9.02V0.26H7.02z"/>
			</g>
			<g>
				<defs>
					<rect id="SVGID_3_" y="0.26" width="195" height="61.76"/>
				</defs>
				<clipPath id="SVGID_2_">
					<use xlink:href="#SVGID_3_"  style="overflow:visible;"/>
				</clipPath>
				<g id="Group_48_3_" transform="translate(0 0)" class="st10">
					<g id="Group_44_3_" transform="translate(27.452 53.209)">
						<path id="Path_239_3_" class="st6" d="M0,6.99h0.85V6.22h0.04c0.2,0.56,0.76,0.92,1.36,0.88c1.18,0,1.89-0.94,1.89-2.47
							S3.42,2.17,2.24,2.17c-0.6-0.04-1.15,0.32-1.36,0.88H0.85V0.26H0V6.99z M1.99,6.36C1.35,6.36,0.85,6,0.85,5.5V3.77
							c0-0.5,0.51-0.86,1.15-0.86c0.67-0.02,1.22,0.51,1.24,1.18c0,0.05,0,0.1-0.01,0.15v0.8C3.29,5.7,2.81,6.29,2.14,6.36
							C2.09,6.36,2.04,6.36,1.99,6.36 M7.1,5.29L6.83,6.17H6.78L6.53,5.29L5.49,2.28H4.64l1.75,4.9L6.07,8.09H5.29v0.72h0.46
							c0.54,0.1,1.06-0.25,1.16-0.79l2.05-5.74H8.15L7.1,5.29z M12.92,6.99V4.37h1.74c0.94,0.06,1.75-0.65,1.8-1.59
							c0.01-0.09,0-0.18,0-0.28c0.09-0.93-0.59-1.77-1.52-1.86c-0.09-0.01-0.18-0.01-0.28,0h-2.62v6.35L12.92,6.99z M12.92,1.42h1.7
							c0.44-0.06,0.84,0.25,0.9,0.69c0.01,0.05,0.01,0.11,0,0.16v0.45c0.03,0.44-0.3,0.83-0.74,0.86c-0.05,0-0.11,0-0.16,0h-1.7
							V1.42z M18.5,4.35h1.4l1.32,2.64h0.99L20.8,4.26c0.8-0.19,1.33-0.94,1.25-1.76c0.1-0.93-0.57-1.76-1.5-1.86
							c-0.1-0.01-0.2-0.01-0.3-0.01h-2.62v6.35h0.87V4.35z M18.5,3.59V1.42h1.7c0.44-0.06,0.84,0.25,0.9,0.69
							c0.01,0.05,0.01,0.11,0,0.16v0.45c0.03,0.44-0.3,0.83-0.74,0.86c-0.05,0-0.11,0-0.16,0H18.5z M25.84,6.99V6.24h-0.88V1.38
							h0.88V0.64H23.2v0.75h0.88v4.86H23.2v0.75H25.84z M29,7.1c1.41,0,2.24-0.76,2.24-1.94c0-0.97-0.56-1.53-1.8-1.8L28.9,3.25
							c-0.75-0.16-1.11-0.42-1.11-0.98c0-0.63,0.46-0.96,1.24-0.96c0.6-0.03,1.18,0.26,1.52,0.76l0.65-0.52
							c-0.49-0.67-1.29-1.05-2.12-1.01c-1.3,0-2.16,0.65-2.16,1.77c0,0.99,0.63,1.53,1.82,1.77l0.54,0.11
							c0.79,0.17,1.09,0.46,1.09,1.02c0,0.67-0.46,1.12-1.33,1.12c-0.67,0-1.3-0.33-1.68-0.88l-0.63,0.56
							C27.26,6.73,28.11,7.14,29,7.1 M32.5,6.99h0.85V1.86h0.05l0.52,1.05l1.46,2.66l1.46-2.66l0.52-1.05h0.05v5.13h0.85V0.64h-1.08
							l-1.76,3.34h-0.04l-1.76-3.34H32.5V6.99z M44.75,6.99l-2.19-6.35h-1.11l-2.2,6.35h0.89l0.61-1.79h2.47l0.6,1.79H44.75z
							 M43.01,4.41h-2.05l1-2.97h0.04L43.01,4.41z"/>
					</g>
					<g id="Group_45_3_" transform="translate(27.618 38.351)">
						<path id="Path_240_3_" class="st6" d="M6.72,10.73h1.61V5.35H4.6v1.57h1.94v0.64c0,1.12-0.95,1.68-2.11,1.68
							c-1.29,0.07-2.4-0.93-2.47-2.22c-0.01-0.15,0-0.29,0.02-0.44V5c0-1.74,0.96-2.66,2.42-2.66C5.39,2.3,6.29,2.9,6.62,3.83
							l1.51-0.89C7.47,1.49,5.99,0.6,4.4,0.68C1.77,0.68,0,2.5,0,5.81s1.76,5.08,4.07,5.08c1.49,0,2.42-0.74,2.59-1.7h0.06
							L6.72,10.73z M12.18,10.9c0.97,0.11,1.88-0.5,2.15-1.44h0.09c0.04,0.73,0.65,1.29,1.37,1.27h1V9.29h-0.73V5.81
							c0-1.69-1.06-2.63-3.06-2.63c-1.15-0.1-2.26,0.44-2.88,1.41l1.08,0.96c0.35-0.59,1-0.95,1.68-0.93c0.96,0,1.37,0.48,1.37,1.3
							v0.54h-1.26c-2.01,0-3.16,0.75-3.16,2.26c-0.06,1.16,0.84,2.14,1.99,2.19C11.95,10.92,12.07,10.91,12.18,10.9 M12.79,9.58
							c-0.71,0-1.12-0.3-1.12-0.89V8.45c0-0.58,0.47-0.91,1.41-0.91h1.16v0.98C14.25,9.21,13.6,9.58,12.79,9.58 M20.05,10.72V6.2
							c0-0.81,0.64-1.15,1.85-1.15h0.57V3.34h-0.4c-0.94-0.05-1.77,0.6-1.95,1.53h-0.07V3.34h-1.81v7.39L20.05,10.72z M28.29,10.72
							h1.81V0.26h-1.81v4.3h-0.07c-0.29-0.87-1.13-1.43-2.04-1.38c-1.85,0-2.89,1.39-2.89,3.85s1.03,3.88,2.89,3.88
							c0.91,0.03,1.74-0.54,2.04-1.4h0.07L28.29,10.72z M26.76,9.39c-0.86,0.01-1.57-0.68-1.58-1.54c0-0.06,0-0.12,0.01-0.17V6.4
							c-0.09-0.86,0.53-1.64,1.4-1.73c0.06-0.01,0.12-0.01,0.18-0.01c0.86,0,1.53,0.47,1.53,1.19V8.2
							C28.29,8.96,27.62,9.4,26.76,9.39 M35.15,10.9c1.18,0.07,2.32-0.44,3.06-1.36l-0.98-1.09c-0.42,0.63-1.13,1-1.88,1
							c-0.9,0.09-1.71-0.57-1.8-1.47c-0.01-0.11-0.01-0.21,0-0.32V7.49h4.91V6.89c0-2.02-1.06-3.72-3.37-3.72
							c-2.17,0-3.42,1.51-3.42,3.85C31.67,9.38,32.97,10.9,35.15,10.9 M35.12,4.53c0.93,0,1.46,0.69,1.46,1.71v0.13h-3.03V6.25
							c-0.09-0.86,0.54-1.63,1.4-1.72C35.01,4.53,35.07,4.53,35.12,4.53 M41.85,10.73V5.85c0-0.79,0.72-1.19,1.47-1.19
							c0.86,0,1.22,0.54,1.22,1.59v4.49h1.81V6.06c0-1.84-0.85-2.89-2.36-2.89c-0.93-0.06-1.78,0.52-2.07,1.4h-0.07V3.34h-1.81v7.39
							L41.85,10.73z M55.59,10.9c1.59,0.06,3.04-0.87,3.65-2.34l-1.52-0.88c-0.28,0.94-1.15,1.58-2.14,1.57
							c-1.39,0-2.28-0.96-2.28-2.66V5.03c0-1.68,0.89-2.69,2.28-2.69c0.94-0.05,1.78,0.56,2.01,1.47l1.6-0.85
							c-0.57-1.47-2.03-2.4-3.61-2.29c-2.6,0-4.26,1.85-4.26,5.18S52.98,10.89,55.59,10.9 M66.79,10.72h1.87V0.85h-1.87v4.05h-4.12
							V0.85h-1.87v9.88h1.87V6.55h4.12L66.79,10.72z M75.03,10.72v-1.5h-1.32V2.35h1.32v-1.5h-4.49v1.5h1.3v6.88h-1.3v1.5H75.03z
							 M82.67,10.72V9.08h-3.89V0.86h-1.87v9.88L82.67,10.72z M90.76,10.72V9.08h-4.64V6.56h4.1V4.9h-4.1v-2.4h4.64V0.85h-6.51v9.88
							L90.76,10.72z"/>
					</g>
					<g id="Group_46_4_" transform="translate(27.525 24.889)">
						<path id="Path_241_4_" class="st6" d="M0.88,7.01V4.19h2.69V3.41H0.88V1.44h2.98V0.66H0v6.35L0.88,7.01z M6.6,7.11
							C7.38,7.16,8.11,6.76,8.5,6.1L7.95,5.63C7.71,6.12,7.21,6.42,6.67,6.4C5.98,6.44,5.39,5.92,5.34,5.23c0-0.06,0-0.12,0-0.18
							V4.86h3.32V4.51C8.8,3.37,7.99,2.34,6.85,2.2C6.77,2.19,6.68,2.19,6.6,2.19C5.4,2.19,4.44,3.17,4.45,4.37
							c0,0.09,0.01,0.19,0.02,0.28C4.31,5.84,5.14,6.93,6.32,7.09C6.42,7.11,6.51,7.11,6.6,7.11 M6.6,2.87
							c0.65,0,1.17,0.52,1.17,1.17c0,0.05,0,0.1-0.01,0.14v0.09H5.35V4.2C5.3,3.51,5.82,2.92,6.51,2.87
							C6.54,2.87,6.57,2.87,6.6,2.87 M11.25,7.11c1.11,0,1.8-0.57,1.8-1.49c0-0.73-0.43-1.18-1.47-1.34l-0.4-0.06
							c-0.55-0.08-0.82-0.26-0.82-0.67c0-0.4,0.29-0.66,0.86-0.66c0.46-0.01,0.91,0.2,1.19,0.56l0.54-0.51
							c-0.41-0.51-1.05-0.79-1.7-0.76c-0.99,0-1.71,0.49-1.71,1.42c0,0.87,0.63,1.25,1.53,1.37l0.4,0.06
							c0.57,0.08,0.76,0.33,0.76,0.67c0,0.44-0.33,0.7-0.93,0.7c-0.54,0-1.05-0.26-1.36-0.7L9.37,6.2
							C9.81,6.8,10.52,7.14,11.25,7.11 M16.23,7.01V6.29h-0.94V3.01h1.01V2.29h-1.01v-1.3h-0.76v0.86c0,0.32-0.1,0.44-0.42,0.44
							h-0.42v0.72h0.75v3.1c-0.05,0.45,0.28,0.85,0.73,0.89c0.05,0.01,0.11,0.01,0.16,0L16.23,7.01z M17.84,1.31
							c0.35,0,0.51-0.19,0.51-0.46V0.72c0-0.27-0.16-0.46-0.51-0.46s-0.51,0.19-0.51,0.46v0.13C17.33,1.12,17.49,1.31,17.84,1.31
							 M17.41,7.01h0.85V2.29h-0.85V7.01z M21.75,7.01l1.64-4.71h-0.81L21.8,4.55l-0.5,1.63h-0.05l-0.5-1.63L19.97,2.3h-0.85
							l1.63,4.71L21.75,7.01z M28.09,7.01V6.29h-0.53V3.81c0-1.02-0.67-1.62-1.85-1.62c-0.7-0.04-1.36,0.31-1.71,0.92l0.51,0.46
							c0.23-0.42,0.67-0.68,1.16-0.67c0.71,0,1.05,0.35,1.05,0.98v0.43h-0.89c-1.35,0-2.01,0.49-2.01,1.4
							c-0.03,0.76,0.57,1.39,1.32,1.42c0.08,0,0.15,0,0.23-0.01c0.61,0.05,1.17-0.32,1.36-0.89h0.05c0.01,0.44,0.37,0.79,0.8,0.78
							c0.01,0,0.02,0,0.02,0L28.09,7.01z M25.57,6.43c-0.53,0-0.86-0.25-0.86-0.68V5.57c0-0.44,0.35-0.67,1.12-0.67h0.9v0.73
							C26.72,6.1,26.23,6.43,25.57,6.43 M30.6,7.01V6.29h-0.67V0.27h-0.85v5.87c-0.04,0.44,0.29,0.83,0.73,0.87c0.05,0,0.1,0,0.15,0
							L30.6,7.01z M33.98,7.01h0.85V3.01h0.99V2.29h-0.99v-1.3h0.99V0.28h-0.74c-0.56-0.05-1.06,0.37-1.1,0.93
							c-0.01,0.07,0,0.14,0,0.21v0.87h-0.75v0.72h0.75L33.98,7.01z M38.49,7.12c1.21-0.01,2.17-1,2.16-2.21
							c0-0.09-0.01-0.17-0.02-0.26c0.15-1.2-0.69-2.29-1.89-2.45c-0.09-0.01-0.17-0.02-0.26-0.02c-1.21,0.01-2.17,1-2.16,2.21
							c0,0.09,0.01,0.17,0.02,0.26c-0.15,1.2,0.69,2.29,1.89,2.44C38.32,7.11,38.4,7.11,38.49,7.12 M38.49,6.39
							c-0.67,0.03-1.23-0.49-1.25-1.16c0-0.07,0-0.15,0.01-0.22V4.3c-0.1-0.66,0.36-1.27,1.02-1.37c0.07-0.01,0.15-0.01,0.22-0.01
							c0.67-0.03,1.23,0.49,1.26,1.15c0,0.08,0,0.15-0.01,0.23v0.71c0.1,0.66-0.36,1.27-1.02,1.37C38.64,6.39,38.57,6.39,38.49,6.39
							 M42.62,7.01V3.91c0-0.46,0.46-0.77,1.24-0.77h0.42V2.29h-0.28c-0.6-0.04-1.14,0.33-1.33,0.9h-0.04v-0.9h-0.85v4.71
							L42.62,7.01z M52.25,7.01l-2.19-6.35h-1.12l-2.2,6.35h0.89l0.61-1.79h2.47l0.6,1.79L52.25,7.01z M50.51,4.43h-2.05l1-2.97
							h0.04L50.51,4.43z M54.03,7.01V3.91c0-0.46,0.46-0.77,1.24-0.77h0.42V2.29H55.4c-0.6-0.04-1.14,0.33-1.33,0.9h-0.04v-0.9
							h-0.85v4.71L54.03,7.01z M58.66,7.01V6.29h-0.94V3.01h1.01V2.29h-1.01v-1.3h-0.76v0.86c0,0.32-0.1,0.44-0.42,0.44h-0.42v0.72
							h0.76v3.1c-0.05,0.45,0.28,0.85,0.73,0.89c0.05,0.01,0.11,0.01,0.16,0L58.66,7.01z M60.37,5.85c-0.29-0.04-0.56,0.16-0.6,0.45
							c-0.01,0.04-0.01,0.08,0,0.12v0.14c-0.03,0.25,0.15,0.49,0.4,0.53c-0.13,0.44-0.38,0.83-0.72,1.14h0.66
							c0.5-0.41,0.81-1.02,0.85-1.66V6.43c0.03-0.29-0.19-0.55-0.48-0.58C60.45,5.85,60.4,5.85,60.37,5.85 M65.91,7.01h0.88V1.44
							h1.96V0.66h-4.81v0.78h1.97L65.91,7.01z M70.91,7.12c0.77,0.04,1.5-0.35,1.89-1.02l-0.55-0.46c-0.24,0.48-0.74,0.78-1.27,0.76
							c-0.69,0.04-1.28-0.48-1.33-1.17c0-0.06,0-0.12,0-0.17V4.86h3.32V4.51c0.14-1.14-0.68-2.17-1.82-2.31
							c-0.08-0.01-0.17-0.01-0.25-0.01c-1.2,0.01-2.16,0.98-2.16,2.18c0,0.1,0.01,0.19,0.02,0.29c-0.16,1.19,0.67,2.28,1.85,2.44
							C70.72,7.11,70.82,7.11,70.91,7.12 M70.91,2.87c0.65,0,1.17,0.52,1.17,1.17c0,0.05,0,0.1-0.01,0.14v0.09h-2.42V4.2
							c-0.05-0.69,0.47-1.29,1.16-1.33C70.85,2.87,70.88,2.87,70.91,2.87 M75.9,7.11c0.79,0.05,1.52-0.41,1.82-1.15L77.1,5.59
							c-0.19,0.49-0.67,0.81-1.2,0.8c-0.65,0.03-1.2-0.48-1.23-1.13c0-0.07,0-0.13,0.01-0.2V4.24C74.6,3.59,75.05,3,75.7,2.92
							c0.07-0.01,0.13-0.01,0.2-0.01c0.49-0.03,0.94,0.28,1.08,0.75l0.7-0.35c-0.28-0.73-1.01-1.18-1.78-1.13
							c-1.35,0-2.12,0.95-2.12,2.47S74.55,7.11,75.9,7.11 M78.69,7h0.85V3.78c0-0.57,0.54-0.86,1.09-0.86c0.66,0,0.99,0.41,0.99,1.2
							v2.88h0.85V4c0-1.15-0.59-1.81-1.56-1.81c-0.59-0.03-1.13,0.33-1.33,0.88h-0.04V0.28h-0.85L78.69,7z M84.73,7V3.78
							c0-0.57,0.54-0.86,1.09-0.86c0.66,0,0.99,0.41,0.99,1.2v2.88h0.85V4c0-1.15-0.59-1.81-1.56-1.81
							c-0.59-0.03-1.13,0.33-1.33,0.88h-0.04V2.3h-0.85v4.71L84.73,7z M90.89,7.11c1.21-0.01,2.18-1,2.16-2.2
							c0-0.09-0.01-0.17-0.02-0.26c0.15-1.2-0.69-2.29-1.89-2.45c-0.09-0.01-0.17-0.02-0.26-0.02c-1.21,0.01-2.17,1-2.16,2.21
							c0,0.09,0.01,0.17,0.02,0.26c-0.15,1.2,0.69,2.29,1.89,2.44C90.72,7.11,90.8,7.11,90.89,7.11 M90.89,6.39
							c-0.67,0.03-1.23-0.49-1.25-1.16c0-0.07,0-0.15,0.01-0.22V4.3c-0.1-0.66,0.36-1.27,1.02-1.37c0.07-0.01,0.15-0.01,0.22-0.01
							c0.67-0.03,1.23,0.49,1.26,1.16c0,0.08,0,0.15-0.01,0.23v0.71c0.1,0.66-0.36,1.27-1.02,1.37C91.04,6.39,90.96,6.39,90.89,6.39
							 M95.69,7.01V6.29h-0.67V0.28h-0.85v5.87c-0.04,0.44,0.29,0.83,0.73,0.87c0.05,0,0.1,0,0.15,0L95.69,7.01z M98.49,7.12
							c1.21-0.01,2.18-1,2.16-2.2c0-0.09-0.01-0.17-0.02-0.26c0.15-1.2-0.69-2.29-1.89-2.45c-0.09-0.01-0.17-0.02-0.26-0.02
							c-1.21,0.01-2.17,1-2.16,2.21c0,0.08,0.01,0.17,0.02,0.25c-0.15,1.2,0.69,2.29,1.89,2.44C98.32,7.11,98.41,7.11,98.49,7.12
							 M98.49,6.39c-0.67,0.03-1.23-0.49-1.26-1.16c0-0.07,0-0.15,0.01-0.22V4.3c-0.1-0.66,0.36-1.27,1.02-1.37
							c0.08-0.01,0.15-0.02,0.23-0.01c0.67-0.03,1.23,0.49,1.26,1.16c0,0.08,0,0.15-0.01,0.23v0.71c0.1,0.66-0.36,1.27-1.02,1.37
							C98.64,6.39,98.57,6.39,98.49,6.39 M105.83,7.49c0-0.79-0.5-1.27-1.67-1.27h-1.07c-0.43,0-0.69-0.08-0.69-0.36
							s0.26-0.42,0.54-0.5c0.17,0.04,0.35,0.06,0.53,0.06c0.89,0.12,1.7-0.51,1.82-1.4c0.01-0.07,0.01-0.14,0.01-0.21
							c0.02-0.48-0.2-0.95-0.59-1.24V2.31h0.93V1.6h-0.72c-0.4,0-0.57,0.26-0.57,0.65v0.1c-0.28-0.11-0.57-0.16-0.87-0.16
							c-0.89-0.11-1.7,0.52-1.81,1.41c-0.01,0.07-0.01,0.14-0.01,0.21c-0.02,0.61,0.32,1.17,0.87,1.43v0.04
							c-0.46,0.11-0.82,0.35-0.82,0.82c-0.02,0.31,0.17,0.59,0.46,0.69v0.1c-0.46,0.06-0.79,0.45-0.77,0.91
							c0,0.73,0.6,1.15,2.1,1.15C105.08,8.93,105.83,8.46,105.83,7.49 M105.03,7.57c0,0.48-0.44,0.72-1.24,0.72h-0.64
							c-0.74,0-1.02-0.31-1.02-0.7c-0.01-0.26,0.14-0.5,0.38-0.6h1.58C104.8,6.99,105.04,7.22,105.03,7.57 M103.47,4.78
							c-0.6,0-0.97-0.28-0.97-0.85V3.69c0-0.57,0.37-0.86,0.97-0.86s0.97,0.28,0.97,0.85v0.24C104.44,4.5,104.07,4.78,103.47,4.78
							 M108.5,5.31l-0.27,0.88h-0.05l-0.25-0.88l-1.05-3.01h-0.84l1.75,4.9l-0.32,0.91h-0.77v0.72h0.46
							c0.54,0.1,1.06-0.25,1.16-0.79l2.05-5.74h-0.82L108.5,5.31z M117.71,7.01h1.08l-1.24-1.33c0.21-0.42,0.36-0.87,0.44-1.33h0.63
							V3.64h-1.29c-0.02,0.51-0.12,1.01-0.29,1.48l-1.35-1.45c0.78-0.44,1.42-0.92,1.42-1.75c-0.01-0.78-0.66-1.41-1.44-1.39
							c-0.05,0-0.09,0-0.14,0.01c-0.85-0.08-1.61,0.55-1.69,1.41c0,0.04-0.01,0.08-0.01,0.12c0.03,0.57,0.29,1.11,0.71,1.49
							c-0.75,0.29-1.25,0.99-1.29,1.79c0,0.97,0.79,1.76,1.76,1.77c0.07,0,0.15,0,0.22-0.01c0.71,0.02,1.38-0.28,1.85-0.81
							L117.71,7.01z M115.48,1.24c0.41-0.04,0.77,0.26,0.81,0.66c0,0.02,0,0.04,0,0.06v0.1c0,0.47-0.51,0.85-1.05,1.15
							c-0.33-0.28-0.54-0.66-0.6-1.08V2.03c0-0.44,0.35-0.79,0.79-0.79C115.45,1.24,115.46,1.24,115.48,1.24 M115.31,6.39
							c-0.74,0-1.2-0.4-1.2-1.03V5.23c0.01-0.53,0.35-1,0.86-1.18l1.64,1.76C116.29,6.19,115.81,6.4,115.31,6.39 M123.74,7.12
							c1.41,0,2.24-0.76,2.24-1.94c0-0.97-0.56-1.53-1.8-1.8l-0.54-0.11c-0.75-0.16-1.11-0.42-1.11-0.98c0-0.63,0.46-0.96,1.24-0.96
							c0.6-0.03,1.18,0.26,1.52,0.75l0.65-0.52c-0.49-0.67-1.29-1.05-2.12-1.01c-1.3,0-2.16,0.65-2.16,1.77
							c0,0.99,0.63,1.53,1.82,1.77l0.54,0.11c0.79,0.17,1.09,0.46,1.09,1.02c0,0.67-0.46,1.12-1.33,1.12c-0.67,0-1.3-0.33-1.68-0.88
							l-0.63,0.56C121.99,6.74,122.85,7.15,123.74,7.12 M128.98,7.11c1.21-0.01,2.18-1,2.16-2.2c0-0.09-0.01-0.17-0.02-0.26
							c0.15-1.2-0.69-2.29-1.89-2.45c-0.09-0.01-0.17-0.02-0.26-0.02c-1.21,0.01-2.18,1-2.16,2.2c0,0.09,0.01,0.17,0.02,0.26
							c-0.15,1.2,0.69,2.29,1.89,2.45C128.8,7.11,128.89,7.11,128.98,7.11 M128.98,6.39c-0.67,0.03-1.23-0.49-1.26-1.16
							c0-0.08,0-0.15,0.01-0.23V4.29c-0.1-0.66,0.36-1.27,1.02-1.37c0.08-0.01,0.15-0.02,0.23-0.01c0.67-0.03,1.23,0.49,1.26,1.16
							c0,0.08,0,0.15-0.01,0.23V5c0.1,0.66-0.36,1.27-1.02,1.37C129.13,6.39,129.05,6.39,128.98,6.39 M134.05,7.11
							c0.79,0.05,1.52-0.41,1.82-1.15l-0.62-0.38c-0.19,0.49-0.67,0.81-1.2,0.8c-0.65,0.03-1.2-0.48-1.23-1.13
							c0-0.07,0-0.13,0.01-0.2V4.24c-0.08-0.65,0.38-1.23,1.02-1.32c0.07-0.01,0.13-0.01,0.2-0.01c0.49-0.03,0.94,0.28,1.08,0.75
							l0.7-0.35c-0.28-0.73-1.01-1.18-1.78-1.13c-1.35,0-2.12,0.95-2.12,2.47S132.7,7.11,134.05,7.11 M137.27,1.31
							c0.35,0,0.51-0.19,0.51-0.46V0.72c0-0.27-0.15-0.46-0.51-0.46s-0.51,0.19-0.51,0.46v0.13C136.76,1.12,136.91,1.31,137.27,1.31
							 M136.84,7.01h0.85V2.3h-0.85V7.01z M140.96,7.12c0.77,0.04,1.5-0.35,1.89-1.02l-0.55-0.46c-0.24,0.48-0.74,0.78-1.27,0.76
							c-0.69,0.04-1.28-0.48-1.33-1.17c0-0.06,0-0.12,0-0.18V4.86h3.32V4.51c0.14-1.14-0.68-2.17-1.82-2.31
							c-0.08-0.01-0.17-0.01-0.25-0.01c-1.2,0.01-2.16,0.98-2.16,2.18c0,0.1,0.01,0.19,0.02,0.29c-0.16,1.19,0.67,2.28,1.85,2.44
							C140.77,7.11,140.86,7.11,140.96,7.12 M140.96,2.87c0.65,0,1.17,0.52,1.17,1.17c0,0.05,0,0.09-0.01,0.14v0.09h-2.42V4.2
							c-0.05-0.69,0.47-1.29,1.16-1.33C140.89,2.87,140.93,2.87,140.96,2.87 M146.21,7V6.29h-0.94V3.01h1.01V2.29h-1.01v-1.3h-0.76
							v0.86c0,0.32-0.1,0.44-0.42,0.44h-0.42v0.72h0.76v3.1c-0.05,0.45,0.28,0.85,0.73,0.89c0.05,0.01,0.11,0.01,0.16,0L146.21,7z
							 M149.24,5.3l-0.27,0.88h-0.05l-0.25-0.88l-1.05-3.01h-0.85l1.75,4.9l-0.32,0.91h-0.77v0.72h0.46
							c0.54,0.1,1.06-0.25,1.16-0.79l2.05-5.74h-0.82L149.24,5.3z"/>
					</g>
					<g id="Group_47_4_" transform="translate(27.188 10.114)">
						<path id="Path_242_4_" class="st6" d="M9.36,10.66L6.06,0.43H3.34L0,10.66h2.23l0.73-2.43h3.38l0.73,2.43H9.36z M5.8,6.34
							H3.48L4.6,2.46h0.07L5.8,6.34z M12.91,6.91h1.58l1.77,3.75h2.46l-1.99-4.02c1.2-0.47,1.94-1.67,1.84-2.95
							c0.16-1.64-1.04-3.1-2.68-3.26c-0.13-0.01-0.25-0.02-0.38-0.01h-4.8v10.23h2.21L12.91,6.91z M12.91,5.04V2.37h2.32
							c0.52-0.07,0.99,0.3,1.05,0.82c0.01,0.06,0.01,0.13,0,0.19v0.65c0.04,0.52-0.35,0.97-0.87,1.02c-0.06,0.01-0.13,0-0.19,0
							L12.91,5.04z M23.57,10.84c2.52,0,3.94-1.36,3.94-3.32c0-1.76-1-2.7-3.08-3.03l-1-0.16c-0.84-0.13-1.2-0.4-1.2-1.1
							c0-0.62,0.48-1,1.47-1c0.84-0.04,1.65,0.32,2.18,0.97l1.47-1.5c-0.9-0.97-2.19-1.5-3.51-1.43c-2.38,0-3.8,1.27-3.8,3.11
							c0,1.71,0.97,2.77,3.1,3.05l1,0.13c0.94,0.13,1.17,0.54,1.17,1.1c0,0.75-0.52,1.23-1.6,1.23c-0.98,0.01-1.91-0.42-2.54-1.17
							l-1.45,1.48C20.69,10.28,22.11,10.89,23.57,10.84 M39.66,10.66V8.68h-4.68V6.47H39V4.51h-4.02v-2.1h4.69V0.43h-6.89v10.23
							L39.66,10.66z M47.61,10.66V8.68h-3.86V0.43h-2.21v10.23L47.61,10.66z M55.95,10.66V8.68h-4.68V6.47h4.02V4.51h-4.02v-2.1
							h4.69V0.43h-6.89v10.23L55.95,10.66z M61.75,10.84c1.66,0.07,3.18-0.91,3.82-2.45l-1.8-1.06c-0.25,0.9-1.08,1.53-2.02,1.52
							c-1.29,0-2.15-0.88-2.15-2.49V4.73c0-1.61,0.86-2.49,2.15-2.49c0.9-0.06,1.7,0.54,1.89,1.42l1.9-1
							c-0.59-1.55-2.13-2.53-3.79-2.4c-2.73,0-4.48,1.91-4.48,5.36S59.02,10.84,61.75,10.84 M74.29,2.41V0.43H66.6v1.98h2.74v8.25
							h2.21V2.41H74.29z M77.88,6.91h1.58l1.77,3.75h2.45l-1.98-4.02c1.2-0.47,1.94-1.67,1.84-2.95c0.16-1.64-1.04-3.1-2.68-3.26
							c-0.13-0.01-0.25-0.02-0.38-0.01h-4.8v10.23h2.21L77.88,6.91z M77.88,5.04V2.37h2.32c0.52-0.07,0.99,0.3,1.05,0.82
							c0.01,0.06,0.01,0.13,0,0.19v0.65C81.3,4.55,80.92,5,80.4,5.04c-0.06,0.01-0.13,0-0.19,0L77.88,5.04z M89.35,10.84
							c2.68,0,4.46-1.82,4.46-5.29s-1.77-5.29-4.46-5.29S84.9,2.07,84.9,5.55S86.67,10.84,89.35,10.84 M89.35,8.86
							c-1.32,0-2.12-0.92-2.12-2.55V4.78c0-1.63,0.8-2.55,2.12-2.55s2.12,0.92,2.12,2.55v1.52C91.47,7.93,90.67,8.86,89.35,8.86
							 M101.44,10.66h2.41V0.43h-2.07v6.89h-0.04l-0.97-2.05l-2.77-4.84h-2.41v10.23h2.07V3.77h0.04l0.97,2.05L101.44,10.66z
							 M110.44,10.66V8.88h-1.3V2.2h1.31V0.43h-4.82V2.2h1.31v6.68h-1.31v1.77L110.44,10.66z M116.03,10.83
							c1.66,0.07,3.18-0.91,3.82-2.45l-1.8-1.06c-0.25,0.9-1.08,1.53-2.02,1.52c-1.29,0-2.15-0.88-2.15-2.49V4.73
							c0-1.61,0.86-2.49,2.15-2.49c0.9-0.06,1.7,0.54,1.89,1.42l1.9-1c-0.59-1.55-2.13-2.53-3.79-2.4c-2.73,0-4.48,1.91-4.48,5.36
							S113.3,10.84,116.03,10.83 M129.88,10.66l-3.29-10.23h-2.73l-3.34,10.23h2.24l0.72-2.43h3.38l0.72,2.43L129.88,10.66z
							 M126.32,6.34H124l1.12-3.88h0.07L126.32,6.34z M141.59,8.82h-4.79l1.89-1.5c1.45-1.16,2.7-2.23,2.7-3.99
							s-1.26-3.08-3.45-3.08c-1.7-0.11-3.25,0.97-3.73,2.61l1.9,0.73c0.11-0.82,0.8-1.43,1.63-1.44c0.68-0.06,1.27,0.44,1.33,1.12
							c0,0.02,0,0.04,0,0.06v0.2c0,0.86-0.39,1.44-1.52,2.42l-3.12,2.7v2.01h7.17L141.59,8.82z M146.59,10.84
							c2.65,0,3.9-1.95,3.9-5.29s-1.25-5.29-3.9-5.29s-3.9,1.95-3.9,5.29S143.94,10.84,146.59,10.84 M146.59,8.98
							c-0.62,0.04-1.19-0.36-1.35-0.97l2.89-3.21v1.72C148.13,8.07,147.75,8.98,146.59,8.98 M145.05,4.58
							c0-1.55,0.38-2.46,1.54-2.46c0.58-0.04,1.12,0.32,1.31,0.88l-2.84,3.18V4.58z M158.9,8.81h-4.78l1.89-1.5
							c1.45-1.16,2.7-2.23,2.7-3.99s-1.26-3.08-3.45-3.08c-1.7-0.11-3.25,0.97-3.73,2.61l1.9,0.73c0.11-0.82,0.8-1.43,1.63-1.44
							c0.68-0.06,1.27,0.44,1.33,1.12c0,0.02,0,0.04,0,0.06v0.2c0,0.86-0.39,1.44-1.52,2.42l-3.12,2.7v2.01h7.17L158.9,8.81z
							 M163.9,10.84c2.65,0,3.9-1.95,3.9-5.29s-1.25-5.29-3.9-5.29S160,2.2,160,5.55S161.25,10.84,163.9,10.84 M163.9,8.98
							c-0.62,0.04-1.19-0.36-1.35-0.97l2.89-3.21v1.72C165.44,8.07,165.06,8.98,163.9,8.98 M162.37,4.58c0-1.55,0.38-2.46,1.54-2.46
							c0.58-0.04,1.12,0.32,1.31,0.88l-2.84,3.18V4.58z"/>
					</g>
				</g>
			</g>
		</g>
	</g>
</g>
</svg>
