<?xml version="1.0" encoding="utf-8"?>
<!-- Generator: Adobe Illustrator 24.2.3, SVG Export Plug-In . SVG Version: 6.00 Build 0)  -->
<svg version="1.1" id="Layer_1" xmlns="http://www.w3.org/2000/svg" xmlns:xlink="http://www.w3.org/1999/xlink" x="0px" y="0px"
	 viewBox="0 0 195 162.37" style="enable-background:new 0 0 195 162.37;" xml:space="preserve">
<style type="text/css">
	.st0{fill:#EF4848;}
	.st1{fill:none;stroke:#1A1818;stroke-miterlimit:10;}
	.st2{fill:#0C142B;stroke:#FFFFFF;stroke-linejoin:bevel;}
	.st3{fill:#FFFFFF;stroke:#1A1818;stroke-miterlimit:10;}
	.st4{fill:#0C142B;stroke:#FFFFFF;stroke-miterlimit:10;}
	.st5{fill:none;stroke:#1A1818;stroke-linejoin:bevel;}
	.st6{fill:#FFFFFF;}
	.st7{fill:#0C142B;}
	.st8{fill:none;stroke:#FFFFFF;}
	.st9{fill:#F58E94;}
	.st10{clip-path:url(#SVGID_2_);}
	.st11{fill:none;stroke:#FFFFFF;stroke-width:2;stroke-miterlimit:10;}
	.st12{fill:none;stroke:#1A1818;stroke-width:1.6;stroke-miterlimit:10;}
	.st13{fill:#FFFFFF;stroke:#0C142B;stroke-width:1.6;stroke-linejoin:bevel;}
	.st14{fill:#FFFFFF;stroke:#1A1818;stroke-width:1.6;stroke-miterlimit:10;}
	.st15{fill:#FFFFFF;stroke:#0C142B;stroke-width:1.6;stroke-miterlimit:10;}
	.st16{fill:none;stroke:#1A1818;stroke-width:1.6;stroke-linejoin:bevel;}
	.st17{fill:#FFFFFF;stroke:#0C142B;stroke-width:1.6;}
	.st18{fill:#3A1212;}
	.st19{clip-path:url(#SVGID_4_);}
	.st20{fill:#808080;}
	.st21{clip-path:url(#SVGID_6_);}
	.st22{clip-path:url(#SVGID_8_);}
	.st23{clip-path:url(#SVGID_10_);}
	.st24{fill:none;stroke:#0C142B;stroke-miterlimit:10;}
	.st25{fill:#FFFFFF;stroke:#0C142B;stroke-linejoin:bevel;}
	.st26{fill:#FFFFFF;stroke:#0C142B;stroke-miterlimit:10;}
	.st27{clip-path:url(#SVGID_12_);}
</style>
<g id="Group_65" transform="translate(-40 -48.317)">
	<g id="Group_33_2_" transform="translate(74.778 49)">
		<path id="Path_189_5_" class="st1" d="M50.2,28.98H33.52l-8.34,14.45l8.34,14.45H50.2l8.34-14.45L50.2,28.98z"/>
		<path id="Path_190_5_" class="st25" d="M25.18,72.31L50.2,57.87l8.34-14.45L33.52,57.87L25.18,72.31z"/>
		
			<rect id="Rectangle_16_5_" x="27.42" y="35.08" transform="matrix(0.866 -0.5 0.5 0.866 -16.1029 26.7501)" class="st1" width="28.89" height="16.68"/>
		<path id="Path_191_5_" class="st3" d="M75.45,14.53H58.77l-8.34,14.45l8.34,14.45h16.68l8.34-14.45L75.45,14.53z"/>
		<path id="Path_192_5_" class="st3" d="M50.43,57.87l25.02-14.45l8.34-14.45L58.77,43.42L50.43,57.87z"/>
		
			<rect id="Rectangle_17_5_" x="52.66" y="20.64" transform="matrix(0.866 -0.5 0.5 0.866 -5.4988 37.4354)" class="st3" width="28.89" height="16.68"/>
		<path id="Path_193_5_" class="st1" d="M100.74,0.09H84.06l-8.34,14.45l8.34,14.45h16.68l8.34-14.45L100.74,0.09z"/>
		<path id="Path_194_5_" class="st26" d="M75.46,43.52H58.78l-8.34,14.45l8.34,14.45h16.68l8.34-14.45L75.46,43.52z"/>
		<path id="Path_195_5_" class="st1" d="M100.74,28.98H84.06l-8.34,14.45l8.34,14.45h16.68l8.34-14.45L100.74,28.98z"/>
		<path id="Path_196_5_" class="st5" d="M83.92,28.98L58.9,43.42h16.68l25.02-14.45H83.92z"/>
		<path id="Path_197_5_" class="st5" d="M75.72,72.31l25.02-14.44l8.34-14.45L84.06,57.87L75.72,72.31z"/>
		
			<rect id="Rectangle_18_4_" x="77.96" y="35.08" transform="matrix(0.866 -0.5 0.5 0.866 -9.3318 52.0201)" class="st26" width="28.89" height="16.68"/>
		<path id="Path_198_5_" class="st26" d="M100.74,57.87H84.06l-8.34,14.45l8.34,14.45h16.68l8.34-14.45L100.74,57.87z"/>
		<path id="Path_199_5_" class="st1" d="M126.04,43.42h-16.68l-8.34,14.45l8.34,14.45h16.68l8.34-14.45L126.04,43.42z"/>
		<path id="Path_200_5_" class="st25" d="M109.24,43.42L84.22,57.87h16.68l25.02-14.45L109.24,43.42z"/>
		
			<rect id="Rectangle_19_5_" x="103.26" y="49.53" transform="matrix(0.866 -0.5 0.5 0.866 -13.165 66.6044)" class="st1" width="28.89" height="16.68"/>
		<path id="Path_201_5_" class="st25" d="M83.23,0.09L58.21,14.53L33.19,28.98h0.06L8.22,43.42H24.9l25.02-14.45h-0.06l25.02-14.45
			l0,0L99.91,0.09L83.23,0.09z"/>
		<path id="Path_202_5_" class="st25" d="M75.72,43.42l25.02-14.45l8.34-14.45L84.06,28.98L75.72,43.42z"/>
		
			<rect id="Rectangle_20_4_" x="77.96" y="6.19" transform="matrix(0.866 -0.5 0.5 0.866 5.1137 48.1495)" class="st26" width="28.89" height="16.68"/>
		<path id="Path_203_5_" class="st7" d="M69.35,61.34c0.02-0.46-0.18-0.9-0.54-1.19c-0.58-0.39-1.22-0.69-1.9-0.88
			c-0.76-0.25-1.5-0.54-2.22-0.88c-1.87-0.92-2.8-2.18-2.8-3.78c-0.01-0.76,0.24-1.51,0.7-2.11c0.52-0.65,1.2-1.14,1.98-1.43
			c0.92-0.35,1.89-0.52,2.87-0.51c0.96-0.02,1.91,0.17,2.79,0.55c0.78,0.33,1.44,0.88,1.92,1.58c0.46,0.69,0.7,1.51,0.68,2.34h-3.47
			c0.03-0.51-0.17-1.01-0.54-1.37c-0.41-0.34-0.93-0.51-1.46-0.48c-0.52-0.03-1.04,0.12-1.47,0.41c-0.56,0.37-0.71,1.12-0.34,1.68
			c0.1,0.15,0.24,0.28,0.39,0.37c0.64,0.42,1.35,0.73,2.09,0.93c0.85,0.26,1.68,0.61,2.46,1.04c1.43,0.69,2.34,2.13,2.34,3.71
			c0.05,1.17-0.49,2.28-1.43,2.97c-1.15,0.78-2.53,1.16-3.91,1.08c-1.09,0.02-2.17-0.2-3.17-0.63c-0.87-0.35-1.61-0.95-2.14-1.72
			c-0.48-0.75-0.73-1.63-0.72-2.52h3.49c-0.05,0.63,0.17,1.25,0.6,1.71c0.56,0.42,1.25,0.61,1.95,0.55c0.48,0.03,0.96-0.1,1.36-0.37
			C69.19,62.14,69.37,61.75,69.35,61.34z"/>
		<path id="Path_204_5_" class="st7" d="M89.17,65.1l3.22,10.03L95.6,65.1h4.58v14.42h-3.48v-3.37l0.34-6.89l-3.49,10.26h-2.3
			l-3.5-10.27l0.34,6.9v3.37H84.6V65.1H89.17z"/>
		<path id="Path_205_5_" class="st25" d="M134.6,28.98l-25.02,14.45h16.68l25.02-14.45H134.6z"/>
		<path id="Path_206_5_" class="st25" d="M134.6,57.87l-0.03,0.05l-24.94,14.4l-8.34,14.45l25.02-14.45l0.03-0.05l24.94-14.4
			l8.34-14.45L134.6,57.87z"/>
		
			<rect id="Rectangle_21_5_" x="128.5" y="35.08" transform="matrix(0.866 -0.5 0.5 0.866 -2.5609 77.2896)" class="st26" width="28.89" height="16.68"/>
		<path id="Path_207_5_" class="st26" d="M24.85,43.42H8.17l-8.34,14.45l8.34,14.45h16.68l8.34-14.45L24.85,43.42z"/>
		<path id="Path_208_5_" class="st26" d="M50.18,28.98H33.5l-8.34,14.45l8.34,14.45h16.68l8.34-14.45L50.18,28.98z"/>
		<path id="Path_209_5_" class="st26" d="M75.45,14.53H58.77l-8.34,14.45l8.34,14.45h16.68l8.34-14.45L75.45,14.53z"/>
		<path id="Path_210_5_" class="st7" d="M14.31,60.19v4.89h-3.48V50.66h5.76c1.01-0.02,2.01,0.19,2.93,0.61
			c0.81,0.37,1.5,0.98,1.97,1.73c0.47,0.77,0.71,1.65,0.7,2.55c0.05,1.3-0.51,2.54-1.51,3.37c-1.19,0.9-2.66,1.35-4.15,1.26
			L14.31,60.19z M14.31,57.5h2.28c0.56,0.04,1.11-0.14,1.54-0.51c0.37-0.38,0.56-0.9,0.53-1.43c0.03-0.59-0.17-1.16-0.54-1.61
			c-0.38-0.41-0.92-0.64-1.49-0.61h-2.32V57.5z"/>
		<path id="Path_211_5_" class="st7" d="M41.44,45.53h-1.88v5.1h-3.48V36.21h5.68c1.43-0.08,2.84,0.32,4.01,1.14
			c0.97,0.78,1.51,1.97,1.45,3.21c0.03,0.87-0.18,1.73-0.61,2.49c-0.46,0.71-1.13,1.27-1.91,1.6l3.01,5.82v0.15h-3.72L41.44,45.53z
			 M39.56,42.86h2.2c0.55,0.04,1.09-0.15,1.49-0.52c0.35-0.4,0.53-0.92,0.5-1.45c0.03-0.54-0.15-1.06-0.51-1.46
			c-0.4-0.38-0.94-0.57-1.49-0.53h-2.2L39.56,42.86z"/>
		<path id="Path_212_5_" class="st7" d="M68.87,36.19H65.4V21.77h3.47V36.19z"/>
		<path id="Path_213_5_" class="st26" d="M126.04,43.42h-16.68l-8.34,14.45l8.34,14.45h16.68l8.34-14.45L126.04,43.42z"/>
		<path id="Path_214_5_" class="st7" d="M120.01,62.38h-4.76l-0.83,2.69h-3.71l5.29-14.42h3.27l5.33,14.42h-3.73L120.01,62.38z
			 M116.08,59.7h3.1l-1.55-5L116.08,59.7z"/>
	</g>
	<g id="Group_63_2_" transform="translate(40 148.667)">
		<g id="Group_49_4_" transform="translate(0 0)">
			<g id="Group_34_6_" transform="translate(0 11.532)">
				<path id="Path_225_6_" class="st7" d="M-0.17,0.09v2h8.45v5.02h-8.45v2h10.45V0.09H-0.17z"/>
			</g>
			<path id="Path_226_6_" class="st7" d="M-0.17,17.13h6.94v-2h-6.94V17.13z"/>
			<g id="Group_35_6_" transform="translate(1.431 0)">
				<path id="Path_227_6_" class="st7" d="M-0.17,10.11h9.02V3.51h5.02v3.08h2V1.51H6.85V8.1H1.83V0.08h-2V10.11z"/>
			</g>
			<g id="Group_36_6_" transform="translate(4.94)">
				<path id="Path_228_6_" class="st7" d="M-0.17,6.6h2V0.09h-2V6.6z"/>
			</g>
			<g id="Group_37_6_" transform="translate(11.959 11.532)">
				<path id="Path_229_6_" class="st7" d="M10.28,9.11v-2H1.83V2.08h8.45v-2H-0.17V9.1L10.28,9.11z"/>
			</g>
			<path id="Path_230_6_" class="st7" d="M22.24,15.13H15.3v2h6.94V15.13z"/>
			<g id="Group_38_6_" transform="translate(11.959 0.002)">
				<path id="Path_231_6_" class="st7" d="M6.85,0.09v8.02H1.83V5.03h-2v5.08h9.02V0.09H6.85z"/>
			</g>
			<g id="Group_39_6_" transform="translate(0 11.532)">
				<path id="Path_232_6_" class="st7" d="M-0.17,0.09v2h8.45v5.02h-8.45v2h10.45V0.09H-0.17z"/>
			</g>
			<path id="Path_233_6_" class="st7" d="M-0.17,17.13h6.94v-2h-6.94V17.13z"/>
			<g id="Group_40_6_" transform="translate(1.431 0)">
				<path id="Path_234_6_" class="st7" d="M-0.17,10.11h9.02V3.51h5.02v3.08h2V1.51H6.85V8.1H1.83V0.08h-2V10.11z"/>
			</g>
			<g id="Group_41_6_" transform="translate(4.94)">
				<path id="Path_235_6_" class="st7" d="M-0.17,6.6h2V0.09h-2V6.6z"/>
			</g>
			<g id="Group_42_6_" transform="translate(11.959 11.532)">
				<path id="Path_236_6_" class="st7" d="M10.28,9.11v-2H1.83V2.08h8.45v-2H-0.17V9.1L10.28,9.11z"/>
			</g>
			<path id="Path_237_6_" class="st7" d="M22.24,15.13H15.3v2h6.94V15.13z"/>
			<g id="Group_43_6_" transform="translate(11.959 0.002)">
				<path id="Path_238_6_" class="st7" d="M6.85,0.09v8.02H1.83V5.03h-2v5.08h9.02V0.09H6.85z"/>
			</g>
			<g>
				<defs>
					<rect id="SVGID_11_" x="-0.17" y="0.09" width="195" height="61.76"/>
				</defs>
				<clipPath id="SVGID_2_">
					<use xlink:href="#SVGID_11_"  style="overflow:visible;"/>
				</clipPath>
				<g id="Group_48_5_" transform="translate(0 0)" class="st10">
					<g id="Group_44_5_" transform="translate(27.452 53.209)">
						<path id="Path_239_5_" class="st7" d="M-0.17,6.82h0.85V6.05h0.04c0.2,0.56,0.76,0.92,1.36,0.88c1.18,0,1.89-0.94,1.89-2.47
							S3.25,2,2.07,2c-0.6-0.04-1.15,0.32-1.36,0.88H0.68V0.09h-0.85V6.82z M1.82,6.19c-0.64,0-1.15-0.36-1.15-0.86V3.6
							c0-0.5,0.51-0.86,1.15-0.86c0.67-0.02,1.22,0.51,1.24,1.18c0,0.05,0,0.1-0.01,0.15v0.8c0.07,0.67-0.42,1.26-1.08,1.32
							C1.92,6.19,1.87,6.19,1.82,6.19 M6.93,5.12L6.66,6H6.61L6.36,5.12L5.32,2.11H4.47l1.75,4.9L5.9,7.92H5.12v0.72h0.46
							c0.54,0.1,1.06-0.25,1.16-0.79L8.8,2.11H7.98L6.93,5.12z M12.75,6.82V4.2h1.74c0.94,0.06,1.75-0.65,1.8-1.59
							c0.01-0.09,0-0.18,0-0.28c0.09-0.93-0.59-1.77-1.52-1.86c-0.09-0.01-0.18-0.01-0.28,0h-2.62v6.35L12.75,6.82z M12.75,1.25h1.7
							c0.44-0.06,0.84,0.25,0.9,0.69c0.01,0.05,0.01,0.11,0,0.16v0.45c0.03,0.44-0.3,0.83-0.74,0.86c-0.05,0-0.11,0-0.16,0h-1.7
							V1.25z M18.33,4.18h1.4l1.32,2.64h0.99l-1.41-2.73c0.8-0.19,1.33-0.94,1.25-1.76c0.1-0.93-0.57-1.76-1.5-1.86
							c-0.1-0.01-0.2-0.01-0.3-0.01h-2.62v6.35h0.87V4.18z M18.33,3.42V1.25h1.7c0.44-0.06,0.84,0.25,0.9,0.69
							c0.01,0.05,0.01,0.11,0,0.16v0.45c0.03,0.44-0.3,0.83-0.74,0.86c-0.05,0-0.11,0-0.16,0H18.33z M25.67,6.82V6.07h-0.88V1.21
							h0.88V0.47h-2.64v0.75h0.88v4.86h-0.88v0.75H25.67z M28.83,6.93c1.41,0,2.24-0.76,2.24-1.94c0-0.97-0.56-1.53-1.8-1.8
							l-0.54-0.11c-0.75-0.16-1.11-0.42-1.11-0.98c0-0.63,0.46-0.96,1.24-0.96c0.6-0.03,1.18,0.26,1.52,0.76l0.65-0.52
							c-0.49-0.67-1.29-1.05-2.12-1.01c-1.3,0-2.16,0.65-2.16,1.77c0,0.99,0.63,1.53,1.82,1.77l0.54,0.11
							c0.79,0.17,1.09,0.46,1.09,1.02c0,0.67-0.46,1.12-1.33,1.12c-0.67,0-1.3-0.33-1.68-0.88l-0.63,0.56
							C27.09,6.56,27.94,6.97,28.83,6.93 M32.33,6.82h0.85V1.69h0.05l0.52,1.05L35.2,5.4l1.46-2.66l0.52-1.05h0.05v5.13h0.85V0.47
							h-1.08l-1.76,3.34h-0.04l-1.76-3.34h-1.11V6.82z M44.58,6.82l-2.19-6.35h-1.11l-2.2,6.35h0.89l0.61-1.79h2.47l0.6,1.79H44.58z
							 M42.84,4.24h-2.05l1-2.97h0.04L42.84,4.24z"/>
					</g>
					<g id="Group_45_5_" transform="translate(27.618 38.351)">
						<path id="Path_240_5_" class="st7" d="M6.55,10.56h1.61V5.18H4.43v1.57h1.94v0.64c0,1.12-0.95,1.68-2.11,1.68
							c-1.29,0.07-2.4-0.93-2.47-2.22c-0.01-0.15,0-0.29,0.02-0.44V4.83c0-1.74,0.96-2.66,2.42-2.66c0.99-0.04,1.88,0.56,2.22,1.49
							l1.51-0.89C7.3,1.32,5.82,0.43,4.23,0.51c-2.63,0-4.4,1.83-4.4,5.14s1.76,5.08,4.07,5.08c1.49,0,2.42-0.74,2.59-1.7h0.06
							L6.55,10.56z M12.01,10.73c0.97,0.11,1.88-0.5,2.15-1.44h0.09c0.04,0.73,0.65,1.29,1.37,1.27h1V9.12h-0.73V5.64
							c0-1.69-1.06-2.63-3.06-2.63c-1.15-0.1-2.26,0.44-2.88,1.41l1.08,0.96c0.35-0.59,1-0.95,1.68-0.93c0.96,0,1.37,0.48,1.37,1.3
							v0.54h-1.26c-2.01,0-3.16,0.75-3.16,2.26c-0.06,1.16,0.84,2.14,1.99,2.19C11.78,10.75,11.89,10.74,12.01,10.73 M12.62,9.41
							c-0.71,0-1.12-0.3-1.12-0.89V8.28c0-0.58,0.47-0.91,1.41-0.91h1.16v0.98C14.08,9.04,13.43,9.41,12.62,9.41 M19.88,10.55V6.03
							c0-0.81,0.64-1.15,1.85-1.15h0.57V3.17h-0.4c-0.94-0.05-1.77,0.6-1.95,1.53h-0.07V3.17h-1.81v7.39L19.88,10.55z M28.12,10.55
							h1.81V0.09h-1.81v4.3h-0.07c-0.29-0.87-1.13-1.43-2.04-1.38c-1.85,0-2.89,1.39-2.89,3.85s1.03,3.88,2.89,3.88
							c0.91,0.03,1.74-0.54,2.04-1.4h0.07L28.12,10.55z M26.59,9.22c-0.86,0.01-1.57-0.68-1.58-1.54c0-0.06,0-0.12,0.01-0.17V6.23
							c-0.09-0.86,0.53-1.64,1.4-1.73c0.06-0.01,0.12-0.01,0.18-0.01c0.86,0,1.53,0.47,1.53,1.19v2.35
							C28.12,8.79,27.45,9.23,26.59,9.22 M34.98,10.73c1.18,0.07,2.32-0.44,3.06-1.36l-0.98-1.09c-0.42,0.63-1.13,1-1.88,1
							c-0.9,0.09-1.71-0.57-1.8-1.47c-0.01-0.11-0.01-0.21,0-0.32V7.32h4.91V6.72C38.29,4.7,37.23,3,34.92,3
							c-2.17,0-3.42,1.51-3.42,3.85C31.5,9.21,32.8,10.73,34.98,10.73 M34.95,4.36c0.93,0,1.46,0.69,1.46,1.71V6.2h-3.03V6.08
							c-0.09-0.86,0.54-1.63,1.4-1.72C34.84,4.36,34.9,4.36,34.95,4.36 M41.67,10.56V5.68c0-0.79,0.72-1.19,1.47-1.19
							c0.86,0,1.22,0.54,1.22,1.59v4.49h1.81V5.89c0-1.84-0.85-2.89-2.36-2.89c-0.93-0.06-1.78,0.52-2.07,1.4h-0.07V3.17h-1.81v7.39
							L41.67,10.56z M55.42,10.73c1.59,0.06,3.04-0.87,3.65-2.34l-1.52-0.88c-0.28,0.94-1.15,1.58-2.14,1.57
							c-1.39,0-2.28-0.96-2.28-2.66V4.86c0-1.68,0.89-2.69,2.28-2.69c0.94-0.05,1.78,0.56,2.01,1.47l1.6-0.85
							c-0.57-1.47-2.03-2.4-3.61-2.29c-2.6,0-4.26,1.85-4.26,5.18S52.81,10.72,55.42,10.73 M66.62,10.55h1.87V0.68h-1.87v4.05H62.5
							V0.68h-1.87v9.88h1.87V6.38h4.12L66.62,10.55z M74.86,10.55v-1.5h-1.32V2.18h1.32v-1.5h-4.49v1.5h1.3v6.88h-1.3v1.5H74.86z
							 M82.5,10.55V8.91h-3.89V0.69h-1.87v9.88L82.5,10.55z M90.59,10.55V8.91h-4.64V6.39h4.1V4.73h-4.1v-2.4h4.64V0.68h-6.51v9.88
							L90.59,10.55z"/>
					</g>
					<g id="Group_46_6_" transform="translate(27.525 24.889)">
						<path id="Path_241_6_" class="st7" d="M0.71,6.84V4.02H3.4V3.24H0.71V1.27H3.7V0.49h-3.87v6.35L0.71,6.84z M6.43,6.94
							c0.77,0.04,1.5-0.35,1.89-1.02L7.78,5.46C7.54,5.95,7.04,6.25,6.5,6.23C5.81,6.27,5.22,5.75,5.17,5.06c0-0.06,0-0.12,0-0.18
							V4.69H8.5V4.34C8.63,3.2,7.82,2.17,6.68,2.03C6.6,2.02,6.51,2.02,6.43,2.02C5.23,2.02,4.27,3,4.28,4.2
							c0,0.09,0.01,0.19,0.02,0.28C4.13,5.67,4.97,6.76,6.15,6.92C6.25,6.94,6.34,6.94,6.43,6.94 M6.43,2.7
							c0.65,0,1.17,0.52,1.17,1.17c0,0.05,0,0.1-0.01,0.14V4.1H5.18V4.03C5.13,3.34,5.65,2.75,6.34,2.7C6.37,2.7,6.4,2.7,6.43,2.7
							 M11.08,6.94c1.11,0,1.8-0.57,1.8-1.49c0-0.73-0.43-1.18-1.47-1.34l-0.4-0.06C10.47,3.97,10.2,3.8,10.2,3.38
							c0-0.4,0.29-0.66,0.86-0.66c0.46-0.01,0.91,0.2,1.19,0.56l0.54-0.51c-0.41-0.51-1.05-0.79-1.7-0.76
							c-0.99,0-1.71,0.49-1.71,1.42c0,0.87,0.63,1.25,1.53,1.37l0.4,0.06c0.57,0.08,0.76,0.33,0.76,0.67c0,0.44-0.33,0.7-0.93,0.7
							c-0.54,0-1.05-0.26-1.36-0.7L9.2,6.03C9.64,6.63,10.35,6.97,11.08,6.94 M16.06,6.84V6.12h-0.94V2.84h1.01V2.12h-1.01v-1.3
							h-0.76v0.86c0,0.32-0.1,0.44-0.42,0.44h-0.42v0.72h0.75v3.1C14.23,6.39,14.56,6.79,15,6.84c0.05,0.01,0.11,0.01,0.16,0
							L16.06,6.84z M17.67,1.14c0.35,0,0.51-0.19,0.51-0.46V0.55c0-0.27-0.16-0.46-0.51-0.46s-0.51,0.19-0.51,0.46v0.13
							C17.16,0.95,17.32,1.14,17.67,1.14 M17.24,6.84h0.85V2.12h-0.85V6.84z M21.58,6.84l1.64-4.71h-0.81l-0.78,2.26l-0.5,1.63
							h-0.05l-0.5-1.63L19.8,2.13h-0.85l1.63,4.71L21.58,6.84z M27.92,6.84V6.12H27.4V3.64c0-1.02-0.67-1.62-1.85-1.62
							c-0.7-0.04-1.36,0.31-1.71,0.92l0.51,0.46c0.23-0.42,0.67-0.68,1.16-0.67c0.71,0,1.05,0.35,1.05,0.98v0.43h-0.89
							c-1.35,0-2.01,0.49-2.01,1.4c-0.03,0.76,0.57,1.39,1.32,1.42c0.08,0,0.15,0,0.23-0.01c0.61,0.05,1.17-0.32,1.36-0.89h0.05
							c0.01,0.44,0.37,0.79,0.8,0.78c0.01,0,0.02,0,0.02,0L27.92,6.84z M25.39,6.26c-0.53,0-0.86-0.25-0.86-0.68V5.4
							c0-0.44,0.35-0.67,1.12-0.67h0.9v0.73C26.55,5.93,26.06,6.26,25.39,6.26 M30.43,6.84V6.12h-0.67V0.1h-0.85v5.87
							c-0.04,0.44,0.29,0.83,0.73,0.87c0.05,0,0.1,0,0.15,0L30.43,6.84z M33.81,6.84h0.85V2.84h0.99V2.12h-0.99v-1.3h0.99V0.11
							h-0.74c-0.56-0.05-1.06,0.37-1.1,0.93c-0.01,0.07,0,0.14,0,0.21v0.87h-0.75v0.72h0.75L33.81,6.84z M38.32,6.95
							c1.21-0.01,2.17-1,2.16-2.21c0-0.09-0.01-0.17-0.02-0.26c0.15-1.2-0.69-2.29-1.89-2.45c-0.09-0.01-0.17-0.02-0.26-0.02
							c-1.21,0.01-2.17,1-2.16,2.21c0,0.09,0.01,0.17,0.02,0.26c-0.15,1.2,0.69,2.29,1.89,2.44C38.15,6.94,38.23,6.94,38.32,6.95
							 M38.32,6.22c-0.67,0.03-1.23-0.49-1.25-1.16c0-0.07,0-0.15,0.01-0.22V4.13c-0.1-0.66,0.36-1.27,1.02-1.37
							c0.07-0.01,0.15-0.01,0.22-0.01c0.67-0.03,1.23,0.49,1.26,1.15c0,0.08,0,0.15-0.01,0.23v0.71c0.1,0.66-0.36,1.27-1.02,1.37
							C38.47,6.22,38.4,6.22,38.32,6.22 M42.45,6.84V3.74c0-0.46,0.46-0.77,1.24-0.77h0.42V2.12h-0.28c-0.6-0.04-1.14,0.33-1.33,0.9
							h-0.04v-0.9H41.6v4.71L42.45,6.84z M52.08,6.84l-2.19-6.35h-1.12l-2.2,6.35h0.89l0.61-1.79h2.47l0.6,1.79L52.08,6.84z
							 M50.34,4.26h-2.05l1-2.97h0.04L50.34,4.26z M53.86,6.84V3.74c0-0.46,0.46-0.77,1.24-0.77h0.42V2.12h-0.28
							c-0.6-0.04-1.14,0.33-1.33,0.9h-0.04v-0.9h-0.85v4.71L53.86,6.84z M58.49,6.84V6.12h-0.94V2.84h1.01V2.12h-1.01v-1.3h-0.76
							v0.86c0,0.32-0.1,0.44-0.42,0.44h-0.42v0.72h0.76v3.1c-0.05,0.45,0.28,0.85,0.73,0.89c0.05,0.01,0.11,0.01,0.16,0L58.49,6.84z
							 M60.2,5.68c-0.29-0.04-0.56,0.16-0.6,0.45c-0.01,0.04-0.01,0.08,0,0.12v0.14c-0.03,0.25,0.15,0.49,0.4,0.53
							c-0.13,0.44-0.38,0.83-0.72,1.14h0.66c0.5-0.41,0.81-1.02,0.85-1.66V6.26c0.03-0.29-0.19-0.55-0.48-0.58
							C60.27,5.68,60.23,5.68,60.2,5.68 M65.74,6.84h0.88V1.27h1.96V0.49h-4.81v0.78h1.97L65.74,6.84z M70.74,6.95
							c0.77,0.04,1.5-0.35,1.89-1.02l-0.55-0.46c-0.24,0.48-0.74,0.78-1.27,0.76c-0.69,0.04-1.28-0.48-1.33-1.17
							c0-0.06,0-0.12,0-0.17V4.69h3.32V4.34c0.14-1.14-0.68-2.17-1.82-2.31c-0.08-0.01-0.17-0.01-0.25-0.01
							C69.54,2.02,68.58,3,68.58,4.2c0,0.1,0.01,0.19,0.02,0.29c-0.16,1.19,0.67,2.28,1.85,2.44C70.55,6.94,70.65,6.94,70.74,6.95
							 M70.74,2.7c0.65,0,1.17,0.52,1.17,1.17c0,0.05,0,0.1-0.01,0.14V4.1h-2.42V4.03c-0.05-0.69,0.47-1.29,1.16-1.33
							C70.68,2.7,70.71,2.7,70.74,2.7 M75.73,6.94c0.79,0.05,1.52-0.41,1.82-1.15l-0.62-0.38c-0.19,0.49-0.67,0.81-1.2,0.8
							c-0.65,0.03-1.2-0.48-1.23-1.13c0-0.07,0-0.13,0.01-0.2V4.07c-0.08-0.65,0.38-1.23,1.02-1.32c0.07-0.01,0.13-0.01,0.2-0.01
							c0.49-0.03,0.94,0.28,1.08,0.75l0.7-0.35c-0.28-0.73-1.01-1.18-1.78-1.13c-1.35,0-2.12,0.95-2.12,2.47S74.38,6.94,75.73,6.94
							 M78.52,6.83h0.85V3.61c0-0.57,0.54-0.86,1.09-0.86c0.66,0,0.99,0.41,0.99,1.2v2.88h0.85V3.83c0-1.15-0.59-1.81-1.56-1.81
							c-0.59-0.03-1.13,0.33-1.33,0.88h-0.04V0.11h-0.85L78.52,6.83z M84.56,6.83V3.61c0-0.57,0.54-0.86,1.09-0.86
							c0.66,0,0.99,0.41,0.99,1.2v2.88h0.85V3.83c0-1.15-0.59-1.81-1.56-1.81C85.34,1.98,84.8,2.34,84.6,2.9h-0.04V2.13h-0.85v4.71
							L84.56,6.83z M90.72,6.94c1.21-0.01,2.18-1,2.16-2.2c0-0.09-0.01-0.17-0.02-0.26c0.15-1.2-0.69-2.29-1.89-2.45
							c-0.09-0.01-0.17-0.02-0.26-0.02c-1.21,0.01-2.17,1-2.16,2.21c0,0.09,0.01,0.17,0.02,0.26c-0.15,1.2,0.69,2.29,1.89,2.44
							C90.55,6.94,90.63,6.94,90.72,6.94 M90.72,6.22c-0.67,0.03-1.23-0.49-1.25-1.16c0-0.07,0-0.15,0.01-0.22V4.13
							c-0.1-0.66,0.36-1.27,1.02-1.37c0.07-0.01,0.15-0.01,0.22-0.01c0.67-0.03,1.23,0.49,1.26,1.16c0,0.08,0,0.15-0.01,0.23v0.71
							c0.1,0.66-0.36,1.27-1.02,1.37C90.87,6.22,90.79,6.22,90.72,6.22 M95.52,6.84V6.12h-0.67V0.11H94v5.87
							c-0.04,0.44,0.29,0.83,0.73,0.87c0.05,0,0.1,0,0.15,0L95.52,6.84z M98.32,6.95c1.21-0.01,2.18-1,2.16-2.2
							c0-0.09-0.01-0.17-0.02-0.26c0.15-1.2-0.69-2.29-1.89-2.45c-0.09-0.01-0.17-0.02-0.26-0.02c-1.21,0.01-2.17,1-2.16,2.21
							c0,0.08,0.01,0.17,0.02,0.25c-0.15,1.2,0.69,2.29,1.89,2.44C98.15,6.94,98.24,6.94,98.32,6.95 M98.32,6.22
							c-0.67,0.03-1.23-0.49-1.26-1.16c0-0.07,0-0.15,0.01-0.22V4.13c-0.1-0.66,0.36-1.27,1.02-1.37c0.08-0.01,0.15-0.02,0.23-0.01
							c0.67-0.03,1.23,0.49,1.26,1.16c0,0.08,0,0.15-0.01,0.23v0.71c0.1,0.66-0.36,1.27-1.02,1.37C98.47,6.22,98.4,6.22,98.32,6.22
							 M105.65,7.32c0-0.79-0.5-1.27-1.67-1.27h-1.07c-0.43,0-0.69-0.08-0.69-0.36s0.26-0.42,0.54-0.5
							c0.17,0.04,0.35,0.06,0.53,0.06c0.89,0.12,1.7-0.51,1.82-1.4c0.01-0.07,0.01-0.14,0.01-0.21c0.02-0.48-0.2-0.95-0.59-1.24
							V2.14h0.93V1.43h-0.72c-0.4,0-0.57,0.26-0.57,0.65v0.1c-0.28-0.11-0.57-0.16-0.87-0.16c-0.89-0.11-1.7,0.52-1.81,1.41
							c-0.01,0.07-0.01,0.14-0.01,0.21c-0.02,0.61,0.32,1.17,0.87,1.43V5.1c-0.46,0.11-0.82,0.35-0.82,0.82
							c-0.02,0.31,0.17,0.59,0.46,0.69v0.1c-0.46,0.06-0.79,0.45-0.77,0.91c0,0.73,0.6,1.15,2.1,1.15
							C104.91,8.76,105.66,8.29,105.65,7.32 M104.86,7.4c0,0.48-0.44,0.72-1.24,0.72h-0.64c-0.74,0-1.02-0.31-1.02-0.7
							c-0.01-0.26,0.14-0.5,0.38-0.6h1.58C104.63,6.82,104.86,7.05,104.86,7.4 M103.3,4.61c-0.6,0-0.97-0.28-0.97-0.85V3.52
							c0-0.57,0.37-0.86,0.97-0.86s0.97,0.28,0.97,0.85v0.24C104.27,4.33,103.9,4.61,103.3,4.61 M108.33,5.14l-0.27,0.88h-0.05
							l-0.25-0.88l-1.05-3.01h-0.84l1.75,4.9l-0.32,0.91h-0.77v0.72H107c0.54,0.1,1.06-0.25,1.16-0.79l2.05-5.74h-0.82L108.33,5.14z
							 M117.54,6.84h1.08l-1.24-1.33c0.21-0.42,0.36-0.87,0.44-1.33h0.63V3.47h-1.29c-0.02,0.51-0.12,1.01-0.29,1.48l-1.35-1.45
							c0.78-0.44,1.42-0.92,1.42-1.75c-0.01-0.78-0.66-1.41-1.44-1.39c-0.05,0-0.09,0-0.14,0.01c-0.85-0.08-1.61,0.55-1.69,1.41
							c0,0.04-0.01,0.08-0.01,0.12c0.03,0.57,0.29,1.11,0.71,1.49c-0.75,0.29-1.25,0.99-1.29,1.79c0,0.97,0.79,1.76,1.76,1.77
							c0.07,0,0.15,0,0.22-0.01c0.71,0.02,1.38-0.28,1.85-0.81L117.54,6.84z M115.31,1.07c0.41-0.04,0.77,0.26,0.81,0.66
							c0,0.02,0,0.04,0,0.06v0.1c0,0.47-0.51,0.85-1.05,1.15c-0.33-0.28-0.54-0.66-0.6-1.08V1.86c0-0.44,0.35-0.79,0.79-0.79
							C115.28,1.07,115.29,1.07,115.31,1.07 M115.14,6.22c-0.74,0-1.2-0.4-1.2-1.03V5.06c0.01-0.53,0.35-1,0.86-1.18l1.64,1.76
							C116.12,6.02,115.64,6.23,115.14,6.22 M123.57,6.95c1.41,0,2.24-0.76,2.24-1.94c0-0.97-0.56-1.53-1.8-1.8l-0.54-0.11
							c-0.75-0.16-1.11-0.42-1.11-0.98c0-0.63,0.46-0.96,1.24-0.96c0.6-0.03,1.18,0.26,1.52,0.76l0.65-0.52
							c-0.49-0.67-1.29-1.05-2.12-1.01c-1.3,0-2.16,0.65-2.16,1.77c0,0.99,0.63,1.53,1.82,1.77l0.54,0.11
							c0.79,0.17,1.09,0.46,1.09,1.02c0,0.67-0.46,1.12-1.33,1.12c-0.67,0-1.3-0.33-1.68-0.88l-0.63,0.56
							C121.82,6.57,122.68,6.98,123.57,6.95 M128.81,6.94c1.21-0.01,2.18-1,2.16-2.2c0-0.09-0.01-0.17-0.02-0.26
							c0.15-1.2-0.69-2.29-1.89-2.45c-0.09-0.01-0.17-0.02-0.26-0.02c-1.21,0.01-2.18,1-2.16,2.2c0,0.09,0.01,0.17,0.02,0.26
							c-0.15,1.2,0.69,2.29,1.89,2.45C128.63,6.94,128.72,6.94,128.81,6.94 M128.81,6.22c-0.67,0.03-1.23-0.49-1.26-1.16
							c0-0.08,0-0.15,0.01-0.23V4.12c-0.1-0.66,0.36-1.27,1.02-1.37c0.08-0.01,0.15-0.02,0.23-0.01c0.67-0.03,1.23,0.49,1.26,1.16
							c0,0.08,0,0.15-0.01,0.23v0.71c0.1,0.66-0.36,1.27-1.02,1.37C128.96,6.21,128.88,6.22,128.81,6.22 M133.88,6.94
							c0.79,0.05,1.52-0.41,1.82-1.15l-0.62-0.38c-0.19,0.49-0.67,0.81-1.2,0.8c-0.65,0.03-1.2-0.48-1.23-1.13
							c0-0.07,0-0.13,0.01-0.2V4.07c-0.08-0.65,0.38-1.23,1.02-1.32c0.07-0.01,0.13-0.01,0.2-0.01c0.49-0.03,0.94,0.28,1.08,0.75
							l0.7-0.35c-0.28-0.73-1.01-1.18-1.78-1.13c-1.35,0-2.12,0.95-2.12,2.47S132.53,6.94,133.88,6.94 M137.1,1.14
							c0.35,0,0.51-0.19,0.51-0.46V0.55c0-0.27-0.15-0.46-0.51-0.46s-0.51,0.19-0.51,0.46v0.13C136.59,0.95,136.74,1.14,137.1,1.14
							 M136.67,6.84h0.85V2.13h-0.85V6.84z M140.79,6.95c0.77,0.04,1.5-0.35,1.89-1.02l-0.55-0.46c-0.24,0.48-0.74,0.78-1.27,0.76
							c-0.69,0.04-1.28-0.48-1.33-1.17c0-0.06,0-0.12,0-0.18V4.69h3.32V4.34c0.14-1.14-0.68-2.17-1.82-2.31
							c-0.08-0.01-0.17-0.01-0.25-0.01c-1.2,0.01-2.16,0.98-2.16,2.18c0,0.1,0.01,0.19,0.02,0.29c-0.16,1.19,0.67,2.28,1.85,2.44
							C140.6,6.94,140.69,6.94,140.79,6.95 M140.79,2.7c0.65,0,1.17,0.52,1.17,1.17c0,0.05,0,0.09-0.01,0.14V4.1h-2.42V4.03
							c-0.05-0.69,0.47-1.29,1.16-1.33C140.72,2.7,140.76,2.7,140.79,2.7 M146.04,6.83V6.12h-0.94V2.84h1.01V2.12h-1.01v-1.3h-0.76
							v0.86c0,0.32-0.1,0.44-0.42,0.44h-0.42v0.72h0.76v3.1c-0.05,0.45,0.28,0.85,0.73,0.89c0.05,0.01,0.11,0.01,0.16,0L146.04,6.83
							z M149.06,5.13l-0.27,0.88h-0.05l-0.25-0.88l-1.05-3.01h-0.85l1.75,4.9l-0.32,0.91h-0.77v0.72h0.46
							c0.54,0.1,1.06-0.25,1.16-0.79l2.05-5.74h-0.82L149.06,5.13z"/>
					</g>
					<g id="Group_47_6_" transform="translate(27.188 10.114)">
						<path id="Path_242_6_" class="st7" d="M9.19,10.49L5.89,0.26H3.17l-3.34,10.23h2.23l0.73-2.43h3.38l0.73,2.43H9.19z
							 M5.63,6.17H3.31l1.12-3.88H4.5L5.63,6.17z M12.74,6.74h1.58l1.77,3.75h2.46l-1.99-4.02c1.2-0.47,1.94-1.67,1.84-2.95
							c0.16-1.64-1.04-3.1-2.68-3.26c-0.13-0.01-0.25-0.02-0.38-0.01h-4.8v10.23h2.21L12.74,6.74z M12.74,4.87V2.2h2.32
							c0.52-0.07,0.99,0.3,1.05,0.82c0.01,0.06,0.01,0.13,0,0.19v0.65c0.04,0.52-0.35,0.97-0.87,1.02c-0.06,0.01-0.13,0-0.19,0
							L12.74,4.87z M23.4,10.67c2.53,0,3.94-1.36,3.94-3.32c0-1.76-1-2.7-3.08-3.03l-1-0.16c-0.84-0.13-1.2-0.4-1.2-1.1
							c0-0.62,0.48-1,1.47-1c0.84-0.04,1.65,0.32,2.18,0.97l1.47-1.5c-0.9-0.97-2.19-1.5-3.51-1.43c-2.38,0-3.8,1.27-3.8,3.11
							c0,1.71,0.97,2.77,3.1,3.05l1,0.13c0.94,0.13,1.18,0.54,1.18,1.1c0,0.75-0.52,1.23-1.6,1.23c-0.98,0.01-1.91-0.42-2.54-1.17
							l-1.45,1.48C20.52,10.11,21.93,10.72,23.4,10.67 M39.49,10.49V8.51h-4.68V6.3h4.02V4.34h-4.02v-2.1h4.69V0.26H32.6v10.23
							L39.49,10.49z M47.44,10.49V8.51h-3.86V0.26h-2.21v10.23L47.44,10.49z M55.78,10.49V8.51H51.1V6.3h4.02V4.34H51.1v-2.1h4.69
							V0.26h-6.89v10.23L55.78,10.49z M61.58,10.67c1.66,0.07,3.18-0.91,3.82-2.45l-1.8-1.06c-0.25,0.9-1.08,1.53-2.02,1.52
							c-1.29,0-2.15-0.88-2.15-2.49V4.56c0-1.61,0.86-2.49,2.15-2.49c0.9-0.06,1.7,0.54,1.89,1.42l1.9-1
							c-0.59-1.55-2.13-2.53-3.79-2.4c-2.73,0-4.48,1.91-4.48,5.36S58.85,10.67,61.58,10.67 M74.12,2.24V0.26h-7.69v1.98h2.74v8.25
							h2.21V2.24H74.12z M77.71,6.74h1.58l1.77,3.75h2.45l-1.98-4.02c1.2-0.47,1.94-1.67,1.84-2.95c0.16-1.64-1.04-3.1-2.68-3.26
							c-0.13-0.01-0.25-0.02-0.38-0.01h-4.8v10.23h2.21L77.71,6.74z M77.71,4.87V2.2h2.32c0.52-0.07,0.99,0.3,1.05,0.82
							c0.01,0.06,0.01,0.13,0,0.19v0.65c0.04,0.52-0.35,0.97-0.87,1.02c-0.06,0.01-0.13,0-0.19,0L77.71,4.87z M89.18,10.67
							c2.68,0,4.46-1.82,4.46-5.29s-1.77-5.29-4.46-5.29s-4.46,1.82-4.46,5.29S86.5,10.67,89.18,10.67 M89.18,8.69
							c-1.32,0-2.12-0.92-2.12-2.55V4.61c0-1.63,0.8-2.55,2.12-2.55s2.12,0.92,2.12,2.55v1.52C91.3,7.76,90.5,8.69,89.18,8.69
							 M101.27,10.49h2.41V0.26h-2.07v6.89h-0.04l-0.97-2.05l-2.77-4.84h-2.41v10.23h2.07V3.6h0.04l0.97,2.05L101.27,10.49z
							 M110.27,10.49V8.71h-1.3V2.03h1.31V0.26h-4.82v1.77h1.31v6.68h-1.31v1.77L110.27,10.49z M115.86,10.66
							c1.66,0.07,3.18-0.91,3.82-2.45l-1.8-1.06c-0.25,0.9-1.08,1.53-2.02,1.52c-1.29,0-2.15-0.88-2.15-2.49V4.56
							c0-1.61,0.86-2.49,2.15-2.49c0.9-0.06,1.7,0.54,1.89,1.42l1.9-1c-0.59-1.55-2.13-2.53-3.79-2.4c-2.73,0-4.48,1.91-4.48,5.36
							S113.13,10.67,115.86,10.66 M129.71,10.49l-3.29-10.23h-2.73l-3.34,10.23h2.24l0.72-2.43h3.38l0.72,2.43L129.71,10.49z
							 M126.15,6.17h-2.32l1.12-3.88h0.07L126.15,6.17z M141.41,8.65h-4.79l1.89-1.5c1.45-1.16,2.7-2.23,2.7-3.99
							s-1.26-3.08-3.45-3.08c-1.7-0.11-3.25,0.97-3.73,2.61l1.9,0.73c0.11-0.82,0.8-1.43,1.63-1.44c0.68-0.06,1.27,0.44,1.33,1.12
							c0,0.02,0,0.04,0,0.06v0.2c0,0.86-0.39,1.44-1.52,2.42l-3.12,2.7v2.01h7.17L141.41,8.65z M146.42,10.67
							c2.65,0,3.9-1.95,3.9-5.29s-1.25-5.29-3.9-5.29s-3.9,1.95-3.9,5.29S143.77,10.67,146.42,10.67 M146.42,8.81
							c-0.62,0.04-1.19-0.36-1.35-0.97l2.89-3.21v1.72C147.96,7.9,147.58,8.81,146.42,8.81 M144.88,4.41c0-1.55,0.38-2.46,1.54-2.46
							c0.58-0.04,1.12,0.32,1.31,0.88l-2.84,3.18V4.41z M158.73,8.64h-4.78l1.89-1.5c1.45-1.16,2.7-2.23,2.7-3.99
							s-1.26-3.08-3.45-3.08c-1.7-0.11-3.25,0.97-3.73,2.61l1.9,0.73c0.11-0.82,0.8-1.43,1.63-1.44c0.68-0.06,1.27,0.44,1.33,1.12
							c0,0.02,0,0.04,0,0.06v0.2c0,0.86-0.39,1.44-1.52,2.42l-3.12,2.7v2.01h7.17L158.73,8.64z M163.73,10.67
							c2.65,0,3.9-1.95,3.9-5.29s-1.25-5.29-3.9-5.29s-3.9,1.95-3.9,5.29S161.08,10.67,163.73,10.67 M163.73,8.81
							c-0.62,0.04-1.19-0.36-1.35-0.97l2.89-3.21v1.72C165.27,7.9,164.89,8.81,163.73,8.81 M162.2,4.41c0-1.55,0.38-2.46,1.54-2.46
							c0.58-0.04,1.12,0.32,1.31,0.88L162.2,6V4.41z"/>
					</g>
				</g>
			</g>
		</g>
	</g>
</g>
</svg>
