<?xml version="1.0" encoding="utf-8"?>
<!-- Generator: Adobe Illustrator 24.2.3, SVG Export Plug-In . SVG Version: 6.00 Build 0)  -->
<svg version="1.1" id="Layer_1" xmlns="http://www.w3.org/2000/svg" xmlns:xlink="http://www.w3.org/1999/xlink" x="0px" y="0px"
	 viewBox="0 0 185 44" style="enable-background:new 0 0 185 44;" xml:space="preserve">
<style type="text/css">
	.st0{fill:#EF4848;}
	.st1{fill:none;stroke:#1A1818;stroke-miterlimit:10;}
	.st2{fill:#0C142B;stroke:#FFFFFF;stroke-linejoin:bevel;}
	.st3{fill:#FFFFFF;stroke:#1A1818;stroke-miterlimit:10;}
	.st4{fill:#0C142B;stroke:#FFFFFF;stroke-miterlimit:10;}
	.st5{fill:none;stroke:#1A1818;stroke-linejoin:bevel;}
	.st6{fill:#FFFFFF;}
	.st7{fill:#0C142B;}
	.st8{fill:none;stroke:#FFFFFF;}
	.st9{fill:#F58E94;}
	.st10{clip-path:url(#SVGID_2_);}
	.st11{fill:none;stroke:#FFFFFF;stroke-width:2;stroke-miterlimit:10;}
	.st12{fill:none;stroke:#1A1818;stroke-width:1.6;stroke-miterlimit:10;}
	.st13{fill:#FFFFFF;stroke:#0C142B;stroke-width:1.6;stroke-linejoin:bevel;}
	.st14{fill:#FFFFFF;stroke:#1A1818;stroke-width:1.6;stroke-miterlimit:10;}
	.st15{fill:#FFFFFF;stroke:#0C142B;stroke-width:1.6;stroke-miterlimit:10;}
	.st16{fill:none;stroke:#1A1818;stroke-width:1.6;stroke-linejoin:bevel;}
	.st17{fill:#FFFFFF;stroke:#0C142B;stroke-width:1.6;}
	.st18{fill:#3A1212;}
	.st19{clip-path:url(#SVGID_4_);}
	.st20{fill:#808080;}
	.st21{clip-path:url(#SVGID_6_);}
</style>
<g id="Group_15" transform="translate(-1338.189 -870.6)">
	<g id="Group_6" transform="translate(1458.135 898.287)">
		<path id="Path_144" class="st7" d="M31.87,12.93c-0.11-0.22,0.27-0.45,0.23-0.78c-0.03-0.23,0.06-0.45,0.25-0.59
			c0.05-0.04,0.22-0.08,0.08-0.2c-0.04-0.03-0.12-0.03-0.18-0.04c-0.18-0.03-0.29,0.09-0.43,0.16c-0.16,0.08-0.38,0.01-0.57,0.05
			c-0.14,0.03-0.21,0.22-0.41,0.19c-0.22-0.07-0.47,0-0.61,0.19c-0.05,0.07-0.49-0.19-0.46-0.27c0.02-0.05,0.06-0.09,0.11-0.11
			c0.47-0.12,0.84-0.48,1.32-0.6c0.11-0.03,0.19-0.17,0.28-0.26c-0.1-0.11-0.18-0.26-0.3-0.31c-0.28-0.12-0.54-0.28-0.82-0.39
			c-0.11-0.05-0.22-0.12-0.31-0.2c-0.08-0.07-0.1-0.12-0.01-0.21c0.09-0.09,0.2-0.26,0.35-0.04c0.03,0.04,0.11,0.04,0.17,0.05
			c0.31,0.01,0.62-0.05,0.91,0.19c0.1,0.08,0.32,0.02,0.48,0.01c0.09-0.01,0.16-0.09,0.15-0.18c0-0.01,0-0.02-0.01-0.03
			c-0.07-0.13-0.14-0.27-0.19-0.41c-0.02-0.16-0.02-0.33,0-0.49c0.01-0.15-0.1-0.22-0.15-0.33c-0.13-0.2-0.07-0.46,0.12-0.6
			c0.06-0.04,0.1-0.17,0.21-0.04s0.26,0.21,0.34,0.35c0.17,0.32,0.31,0.66,0.46,0.98c0.02,0.06,0.06,0.11,0.11,0.14
			c0.05,0.02,0.16,0.03,0.19,0c0.08-0.12,0.13-0.28,0.22-0.4c0.11-0.12,0.22-0.24,0.34-0.35c0.17-0.14,0.3-0.33,0.36-0.54
			c0.06-0.29,0.43-0.23,0.6-0.41c0.08-0.08,0.14-0.03,0.14,0.12c0,0.16-0.04,0.31-0.11,0.44c-0.2,0.37-0.37,0.76-0.57,1.13
			c-0.11,0.23-0.13,0.49-0.06,0.73c0.02,0.08,0.07,0.06,0.14-0.01c0.06-0.07,0.15-0.11,0.25-0.12c0.26-0.01,0.52-0.01,0.78,0
			c0.15-0.01,0.3-0.06,0.43-0.14c0.21-0.05,0.43-0.06,0.65-0.03c0.04,0,0.1,0.22,0.07,0.26c-0.09,0.1-0.2,0.28-0.27,0.26
			c-0.32-0.06-0.51,0.22-0.8,0.23c-0.29,0.09-0.56,0.23-0.81,0.41c-0.02,0.02-0.05,0.05-0.07,0.07c0.04,0.04,0.09,0.11,0.13,0.1
			c0.23-0.05,0.46,0.05,0.58,0.25c0.1,0.16,0.29,0.11,0.4,0.21c0.1,0.08,0.18,0.18,0.23,0.29c0.02,0.06-0.06,0.22-0.1,0.23
			c-0.26,0.02-0.52,0-0.78,0c-0.1-0.2-0.33-0.16-0.48-0.27c-0.07-0.05-0.16-0.09-0.25-0.11c-0.07-0.02-0.18,0.11-0.15,0.2
			c0.07,0.13,0.13,0.27,0.19,0.41c0.04,0.15,0,0.32,0.03,0.48c0.01,0.05,0.11,0.08,0.13,0.14c0.11,0.24,0.03,0.52-0.18,0.67
			c-0.06,0.05-0.08,0.05-0.14-0.02c-0.25-0.25-0.31-0.61-0.6-0.84c-0.07-0.05,0-0.25-0.03-0.37c-0.03-0.08-0.14-0.13-0.2-0.21
			s-0.13-0.09-0.13,0c-0.01,0.26-0.21,0.38-0.35,0.54C32.66,12.67,32.7,12.9,32.5,13c-0.2,0.1-0.15,0.34-0.28,0.47
			c-0.03,0.03-0.12,0.02-0.19,0.01c-0.03-0.01-0.06-0.03-0.07-0.06C31.93,13.3,31.91,13.18,31.87,12.93z M33.28,10.59
			c0.01-0.2-0.1-0.3-0.28-0.24c-0.04,0.01-0.08,0.1-0.07,0.12c0.06,0.07,0.12,0.14,0.19,0.2l0.07,0.06L33.28,10.59z M33.5,10.81
			l0.07,0.12c0.02-0.02,0.07-0.05,0.06-0.07c-0.02-0.05-0.04-0.09-0.06-0.13L33.5,10.81z"/>
	</g>
	<g id="Group_7" transform="translate(1347.452 876.049)">
		<path id="Path_145" class="st7" d="M31.32,27.64c0.31,0.25,0.7,0.38,1.1,0.38v0.77c-0.28,0-0.56-0.01-0.84-0.04
			c-2.78-0.07-4.59-0.11-5.41-0.11c-0.93,0-2.78,0.04-5.56,0.11c-0.27,0.03-0.54,0.04-0.81,0.04v-0.77
			c0.58,0.02,1.17-0.03,1.74-0.15c0.35-0.1,0.53-0.26,0.53-0.48c-0.02-0.23-0.11-0.44-0.26-0.62l-6.11-8.71l-2.23,2.78
			c-1.08,1.18-1.74,2.68-1.87,4.28c-0.04,0.77,0.26,1.51,0.81,2.05c0.62,0.55,1.41,0.86,2.23,0.88v0.74
			c-1.39-0.07-3.5-0.11-6.33-0.11c-1.56,0-2.74,0.04-3.55,0.11v-0.74c2.41-1.22,4.49-3.01,6.07-5.2l4.39-5.49L6.88,5.44
			C6.54,4.92,6.14,4.43,5.7,4C5.39,3.75,5,3.61,4.61,3.61V2.84c0.37,0,0.67,0.01,0.91,0.04c2.85,0.07,4.76,0.11,5.71,0.11
			c0.83,0,2.52-0.04,5.09-0.11c0.27-0.03,0.54-0.04,0.81-0.04v0.77c-0.58-0.02-1.17,0.03-1.74,0.15c-0.35,0.1-0.53,0.26-0.53,0.48
			c0.02,0.23,0.11,0.44,0.26,0.62l5.31,7.54l2.09-2.56c1.04-1.03,1.68-2.39,1.83-3.84c0.03-0.62-0.21-1.22-0.66-1.65
			c-0.53-0.45-1.2-0.71-1.9-0.74V2.87c1.39,0.07,3.01,0.11,4.87,0.11c1.56,0,2.74-0.04,3.55-0.11v0.74
			c-0.92,0.38-1.76,0.92-2.49,1.6c-0.89,0.78-1.71,1.63-2.45,2.54l-4.35,5.34l9.26,13.1C30.48,26.71,30.88,27.2,31.32,27.64z"/>
		<path id="Path_146" class="st7" d="M53.06,3.62c-0.58,0.01-1.15,0.11-1.7,0.29C51,4.06,50.74,4.37,50.65,4.75
			c-0.15,0.66-0.21,1.34-0.18,2.01v18.15c-0.03,0.68,0.04,1.35,0.2,2.01c0.1,0.37,0.36,0.68,0.71,0.84
			c0.54,0.18,1.11,0.28,1.68,0.29v0.74c-1.42-0.07-3.45-0.11-6.11-0.11c-2.95,0-5.12,0.04-6.51,0.11v-0.74
			c0.58-0.01,1.15-0.11,1.7-0.29c0.36-0.15,0.62-0.46,0.71-0.84c0.15-0.66,0.21-1.34,0.18-2.01V6.76c0.03-0.68-0.04-1.35-0.2-2.01
			c-0.1-0.37-0.36-0.68-0.71-0.84c-0.54-0.18-1.11-0.28-1.68-0.29V2.88c1.39,0.07,3.56,0.11,6.51,0.11c2.64,0,4.67-0.04,6.11-0.11
			L53.06,3.62z"/>
		<path id="Path_147" class="st7" d="M89.29,27.33c-0.67,0.69-1.5,1.22-2.42,1.54c-0.99,0.31-2.03,0.46-3.07,0.44
			c-1.36,0.08-2.72-0.23-3.92-0.9c-1-0.71-1.63-1.83-1.72-3.06l-0.55-3.66c-0.14-1.34-0.48-2.64-1.01-3.88
			c-0.3-0.8-1.07-1.32-1.92-1.32h-1.65v8.42c-0.03,0.68,0.04,1.35,0.2,2.01c0.1,0.37,0.36,0.68,0.71,0.84
			c0.54,0.18,1.11,0.28,1.68,0.29v0.74c-1.42-0.07-3.45-0.11-6.11-0.11c-2.95,0-5.12,0.04-6.51,0.11v-0.74
			c0.58-0.01,1.15-0.11,1.7-0.29c0.36-0.15,0.62-0.46,0.71-0.84c0.15-0.66,0.21-1.34,0.18-2.01V6.76c0.03-0.68-0.04-1.35-0.2-2.01
			c-0.1-0.37-0.36-0.68-0.71-0.84c-0.54-0.18-1.11-0.28-1.68-0.29V2.88c1.39,0.07,3.49,0.11,6.29,0.11l4.21-0.04
			c0.49-0.02,1.05-0.04,1.68-0.04c3.71,0,6.47,0.52,8.29,1.57c1.76,0.94,2.82,2.8,2.73,4.79c0.02,1.78-0.73,3.49-2.05,4.68
			c-1.37,1.29-3.66,2.09-6.88,2.38c1.96,0.03,3.89,0.51,5.64,1.41c1.24,0.73,2.1,1.97,2.34,3.38l0.77,3.8
			c0.08,0.66,0.29,1.29,0.62,1.87c0.23,0.34,0.62,0.53,1.02,0.51c0.43,0,0.84-0.17,1.13-0.48L89.29,27.33z M73.75,3.88
			c-0.31,0.21-0.51,0.54-0.57,0.91c-0.12,0.65-0.16,1.31-0.15,1.98v9h0.98c1.39,0.16,2.75-0.45,3.55-1.6
			c0.71-1.38,1.04-2.93,0.95-4.48c0.09-1.56-0.19-3.11-0.82-4.54c-0.51-1-1.57-1.61-2.69-1.54C74.58,3.59,74.14,3.68,73.75,3.88z"/>
		<path id="Path_148" class="st7" d="M109.92,3.62c-0.58,0.01-1.15,0.11-1.7,0.29c-0.36,0.15-0.62,0.46-0.71,0.84
			c-0.15,0.66-0.21,1.34-0.18,2.01v18.15c-0.03,0.68,0.04,1.35,0.2,2.01c0.1,0.37,0.36,0.68,0.71,0.84
			c0.54,0.18,1.11,0.28,1.68,0.29v0.74c-1.41-0.07-3.45-0.11-6.11-0.11c-2.95,0-5.12,0.04-6.51,0.11v-0.74
			c0.58-0.01,1.15-0.11,1.7-0.29c0.36-0.15,0.62-0.46,0.71-0.84c0.15-0.66,0.21-1.34,0.18-2.01V6.76c0.03-0.68-0.04-1.35-0.2-2.01
			c-0.1-0.37-0.36-0.68-0.71-0.84c-0.54-0.18-1.11-0.28-1.68-0.29V2.88c1.39,0.07,3.56,0.11,6.51,0.11c2.63,0,4.67-0.04,6.11-0.11
			L109.92,3.62z"/>
		<path id="Path_149" class="st7" d="M143.77,3.62c-0.62,0.11-1.2,0.38-1.68,0.79c-0.41,0.45-0.67,1.02-0.74,1.63
			c-0.14,1.09-0.21,2.19-0.18,3.29v8.82c0,3.51-0.5,6.1-1.5,7.76c-0.69,1.12-1.7,2-2.91,2.52c-1.57,0.64-3.26,0.94-4.96,0.88
			c-2.42,0.14-4.82-0.47-6.88-1.76c-1.18-0.83-2.03-2.04-2.4-3.44c-0.46-1.92-0.66-3.88-0.6-5.85V6.77
			c0.03-0.68-0.04-1.35-0.18-2.01c-0.09-0.38-0.36-0.69-0.71-0.84c-0.55-0.18-1.12-0.28-1.7-0.29V2.88
			c1.39,0.07,3.54,0.11,6.44,0.11c2.88,0,5.06-0.04,6.55-0.11v0.74c-0.65,0.01-1.3,0.11-1.92,0.29c-0.39,0.14-0.7,0.45-0.82,0.84
			c-0.18,0.66-0.25,1.33-0.22,2.01V21.7c-0.16,1.71,0.23,3.44,1.1,4.92c0.87,1,2.16,1.52,3.48,1.41c1.98,0.17,3.89-0.78,4.94-2.47
			c1.09-2.17,1.6-4.58,1.46-7.01v-8.49c0.03-1.3-0.04-2.61-0.22-3.9c-0.08-0.68-0.43-1.31-0.97-1.74c-0.76-0.46-1.62-0.73-2.51-0.81
			V2.88c1,0.07,2.37,0.11,4.1,0.11c1.29,0,2.31-0.04,3.04-0.11L143.77,3.62z"/>
		<path id="Path_150" class="st7" d="M166.55,2.76c0.88,0.26,1.74,0.63,2.54,1.08c0.27,0.15,0.51,0.27,0.71,0.37
			c0.16,0.09,0.35,0.14,0.53,0.15c0.23-0.01,0.44-0.16,0.51-0.38c0.16-0.39,0.26-0.81,0.29-1.23h0.84
			c-0.12,1.76-0.18,4.73-0.18,8.93h-0.84c-0.09-1.37-0.41-2.72-0.95-3.99c-0.48-1.19-1.23-2.26-2.2-3.11
			c-0.89-0.79-2.03-1.22-3.22-1.21c-0.98-0.05-1.95,0.27-2.71,0.9c-0.7,0.64-1.08,1.56-1.02,2.51c-0.02,0.76,0.17,1.5,0.55,2.16
			c0.43,0.68,0.97,1.28,1.61,1.77c0.71,0.57,1.87,1.42,3.48,2.54c0.15,0.07,0.29,0.16,0.42,0.26c0.13,0.1,0.26,0.2,0.38,0.29
			c1.12,0.76,2.2,1.58,3.22,2.47c0.8,0.71,1.47,1.56,1.96,2.51c0.52,1.02,0.77,2.15,0.75,3.29c0.05,1.45-0.43,2.87-1.34,4.01
			c-0.95,1.13-2.2,1.97-3.6,2.43c-1.61,0.55-3.31,0.83-5.01,0.81c-1.25,0.02-2.49-0.1-3.71-0.37c-0.95-0.23-1.88-0.56-2.76-0.99
			c-0.36-0.27-0.79-0.45-1.24-0.51c-0.23,0.01-0.44,0.16-0.51,0.38c-0.16,0.39-0.26,0.81-0.29,1.23h-0.84
			c0.1-1.66,0.15-5.2,0.15-10.61h0.84c0.05,2.46,0.68,4.88,1.83,7.06c0.96,1.75,2.83,2.81,4.83,2.71c1.15,0.06,2.28-0.27,3.2-0.95
			c0.79-0.64,1.24-1.62,1.19-2.63c0.03-1.31-0.43-2.58-1.3-3.57c-1.21-1.27-2.57-2.38-4.05-3.31c-1.21-0.79-2.39-1.65-3.51-2.56
			c-0.86-0.71-1.59-1.58-2.16-2.54c-0.58-1.02-0.87-2.18-0.84-3.35c-0.05-1.39,0.39-2.76,1.24-3.86c0.87-1.06,2.02-1.86,3.31-2.31
			c1.45-0.51,2.98-0.77,4.52-0.75C164.31,2.34,165.45,2.47,166.55,2.76z"/>
	</g>
	<g id="Trazado_39" transform="translate(1434.664 885.815)">
		<path id="Path_151" class="st7" d="M28.14,9.2c-0.03-0.02-0.06-0.05-0.09-0.08c-0.23-0.23-0.49-0.42-0.79-0.56
			c-0.23-0.14-0.29-0.01-0.37,0.1c-0.11,0.16-0.17,0.36-0.28,0.52c-0.22,0.32-0.33,0.33-0.7,0.11c-0.19-0.15-0.34-0.34-0.46-0.55
			c-0.01-0.26-0.19-0.48-0.44-0.53c-0.2-0.05-0.38-0.17-0.5-0.34c-0.07-0.09-0.09-0.22-0.06-0.33c0.13-0.17,0.28-0.32,0.44-0.46
			c0.51-0.51,0.55-0.57,0.47-0.62c-0.25-0.15-0.14-0.45-0.34-0.64c-0.2-0.19,0.11-0.69,0.42-0.7c0.34-0.01,0.68-0.01,1.02,0
			c0.13,0.01,0.24-0.07,0.27-0.2c0.04-0.11,0.09-0.3,0.14-0.3c0.2,0,0.42-0.11,0.6,0.08c0.14,0.15,0.29,0.26,0.3,0.52
			c0,0.39,0.04,0.42,0.42,0.4c0.48-0.02,0.8,0.12,0.87,0.66c0.02,0.13,0.29,0.22,0.22,0.41c-0.08,0.14-0.17,0.28-0.29,0.39
			c-0.08,0.1-0.18,0.18-0.27,0.27c-0.22,0.23-0.22,0.23-0.03,0.61c0.16,0.25,0.12,0.58-0.09,0.78C28.44,8.9,28.29,9.04,28.14,9.2z"
			/>
	</g>
	<g id="Group_9" transform="translate(1448.569 877.76)">
		<g id="Group_8">
			
				<rect id="Rectangle_2" x="20.94" y="19.14" transform="matrix(0.6697 -0.7426 0.7426 0.6697 -0.2417 37.9118)" class="st7" width="43.12" height="0.17"/>
			<path id="Path_152" class="st7" d="M28.15,35.7l-0.55-0.49L27.79,35L56.83,2.77l0.55,0.49l-0.19,0.21L28.15,35.7z"/>
		</g>
	</g>
	<g id="Group_11" transform="translate(1369.527 870.6)">
		<g id="Group_10" transform="translate(0)">
			
				<rect id="Rectangle_3" x="2.97" y="17.52" transform="matrix(0.6697 -0.7426 0.7426 0.6697 -4.9683 24.0296)" class="st7" width="43.12" height="0.17"/>
			<path id="Path_153" class="st7" d="M10.18,34.07l-0.55-0.49l0.19-0.21L38.86,1.14l0.55,0.49l-0.19,0.21L10.18,34.07z"/>
		</g>
	</g>
	<g id="Group_12" transform="translate(1387.725 885.056)">
		<path id="Path_154" class="st7" d="M14.07,8.59c0.01-0.33-0.11-0.69,0.25-0.93c-0.02-0.25,0.08-0.52-0.2-0.69
			c-0.07-0.05-0.13-0.11-0.19-0.18c-0.32-0.39-0.15-0.79,0.27-1.04c0.07-0.04,0.25,0.03,0.33,0.1c0.14,0.12,0.3,0.21,0.44,0.09
			c0.14-0.12,0.37-0.23,0.36-0.49c-0.01-0.26-0.02-0.52-0.01-0.77c0-0.07,0.05-0.2,0.09-0.21c0.21-0.03,0.42-0.03,0.63-0.05
			c0.32-0.03,0.28,0.21,0.34,0.4c0.04,0.11,0.18,0.18,0.27,0.27c0.12,0.12,0.31,0.13,0.43,0.01c0,0,0.01-0.01,0.01-0.01
			c0.18-0.23,0.43-0.39,0.71-0.48c0.33-0.07,0.61-0.01,0.62,0.32c0.01,0.16,0.08,0.35-0.1,0.47C18.11,5.57,18.19,5.8,18.19,6
			c0,0.07,0.08,0.2,0.12,0.2c0.29,0,0.62,0.12,0.86-0.08c0.38-0.34,0.82-0.12,1.23-0.17c0.08-0.01,0.18,0.17,0.28,0.26
			c0.13,0.08,0.17,0.26,0.08,0.39c-0.01,0.02-0.03,0.03-0.04,0.05c-0.26,0.27-0.47,0.6-0.89,0.66c-0.03,0-0.06,0.06-0.09,0.09
			c-0.19,0.14-0.23,0.26-0.1,0.37c0.35,0.29,0.57,0.75,1.09,0.82c0.04,0.01,0.12,0.28,0.07,0.32c-0.16,0.17-0.27,0.44-0.6,0.41
			c-0.21-0.02-0.44,0.03-0.64-0.01c-0.19-0.07-0.37-0.15-0.54-0.25c-0.12-0.02-0.23,0.05-0.26,0.17c0,0.01,0,0.02,0,0.02
			c0.01,0.08,0,0.2,0.05,0.23c0.33,0.21,0.18,0.54,0.22,0.82c0.03,0.26-0.2,0.36-0.33,0.51c-0.1,0.13-0.24,0.23-0.39,0.31
			c-0.12,0.01-0.23-0.04-0.3-0.14c-0.05-0.1,0.02-0.27-0.03-0.38c-0.07-0.15-0.16-0.28-0.28-0.39c-0.22-0.21-0.25,0.1-0.35,0.17
			c-0.33,0.23-0.69,0.41-1.08,0.52c-0.25,0.02-0.34-0.04-0.34-0.25c-0.01-0.38-0.07-0.77,0.34-1.02c0.08-0.05,0.21-0.12,0.05-0.27
			c-0.12-0.13-0.31-0.17-0.47-0.09c-0.38,0.11-0.68,0.46-1.15,0.37c-0.34-0.04-0.59-0.32-0.61-0.65
			C14.07,8.85,14.07,8.72,14.07,8.59z"/>
	</g>
	<g id="Group_13" transform="translate(1338.189 887.788)">
		<path id="Path_155" class="st7" d="M3.81,6.69c-0.04-0.12-0.1-0.24-0.17-0.35C3.45,6.13,3.51,5.98,3.68,5.81
			c0.26-0.26,0.25-0.27,0.62-0.1c0.06,0.03,0.16,0.08,0.18,0.06C4.7,5.56,4.91,5.34,5.12,5.13c0.12-0.12,0.32-0.11,0.44,0.01
			c0,0,0,0,0,0c0.09,0.09,0.25,0.17,0.27,0.27C5.9,6.05,6.33,6.1,6.83,6.06C7.1,6.06,7.33,6.23,7.4,6.48
			c0.12,0.24,0.05,0.53-0.18,0.68c-0.1,0.06-0.2,0.17-0.31,0.18C6.75,7.36,6.67,7.42,6.66,7.56C6.64,7.75,6.69,7.88,6.93,7.88
			c0.24-0.01,0.34,0.23,0.48,0.38c0.04,0.11,0.02,0.24-0.06,0.33C7.2,8.69,6.97,8.67,6.83,8.87c-0.08,0.12-0.11,0.1,0.04,0.37
			S6.93,9.68,6.7,9.69c-0.13,0.03-0.26,0.03-0.38,0C6.14,9.6,6.01,9.34,5.78,9.46c-0.11,0.06-0.1,0.3-0.19,0.42
			c-0.14,0.16-0.29,0.32-0.44,0.47c-0.09,0.1-0.15,0.12-0.28,0.02c-0.41-0.26-0.62-0.73-0.53-1.2c0.02-0.13-0.08-0.22-0.25-0.22
			c-0.26,0.01-0.52,0-0.77,0.01C3.1,8.98,3.04,8.8,2.9,8.7C2.77,8.61,2.82,8.52,2.92,8.43c0.1-0.09,0.17-0.2,0.27-0.27
			C3.29,8.08,3.3,8.03,3.2,7.97c-0.13-0.09-0.25-0.25-0.4-0.29c-0.19-0.04-0.35-0.08-0.3-0.29C2.55,7.14,2.75,6.94,3,6.9
			c0.2-0.03,0.43-0.07,0.57,0.16c0.07,0.11,0.13,0.11,0.18-0.01C3.78,6.93,3.8,6.81,3.81,6.69z"/>
	</g>
</g>
</svg>
