<?xml version="1.0" encoding="utf-8"?>
<!-- Generator: Adobe Illustrator 24.2.3, SVG Export Plug-In . SVG Version: 6.00 Build 0)  -->
<svg version="1.1" id="Layer_1" xmlns="http://www.w3.org/2000/svg" xmlns:xlink="http://www.w3.org/1999/xlink" x="0px" y="0px"
	 viewBox="0 0 1150 353" style="enable-background:new 0 0 1150 353;" xml:space="preserve">
<style type="text/css">
	.st0{enable-background:new    ;}
	.st1{fill:#red;}
</style>
<g class="st0">
	<path class="st1" d="M414.4,32.1v8c-6.67,2.67-13.14,7.8-19.4,15.4c-6.27,7.6-11.54,18.34-15.8,32.2l-70.4,228.4
		c-2.94-0.27-7.6-0.4-14-0.4c-6.4,0-11.07,0.13-14,0.4L222,137.7l-59.2,178.4c-2.94-0.27-7.6-0.4-14-0.4c-6.4,0-11.07,0.13-14,0.4
		L45.2,65.7c-3.2-8.8-7.07-15.2-11.6-19.2c-4.54-4-9.06-6.13-13.6-6.4v-8c16,0.8,35.86,1.2,59.6,1.2c22.4,0,38.8-0.4,49.2-1.2v8
		c-9.34,1.34-14,6.54-14,15.6c0,4.27,1.2,10.27,3.6,18l58.4,169.2l40.4-119.2l-20.4-62c-2.67-7.73-5.8-13.13-9.4-16.2
		c-3.6-3.06-7.8-4.86-12.6-5.4v-8c14.93,0.8,34,1.2,57.2,1.2c26.13,0,45.33-0.4,57.6-1.2v8c-9.6,0.27-16.54,1.4-20.8,3.4
		c-4.27,2-6.4,5.8-6.4,11.4c0,4.8,1.33,11.07,4,18.8l54.8,167.2l38-120.8c6.13-20,9.2-35.46,9.2-46.4c0-11.46-2.87-19.8-8.6-25
		c-5.74-5.2-14.34-8.06-25.8-8.6v-8c18.13,0.8,34.66,1.2,49.6,1.2C396.14,33.3,406.4,32.9,414.4,32.1z"/>
	<path class="st1" d="M413,304.9c-8.4-8.8-12.6-20.4-12.6-34.8c0-12,3.13-21.93,9.4-29.8c6.26-7.86,13.86-13.93,22.8-18.2
		c8.93-4.26,20.33-8.8,34.2-13.6c14.66-5.06,25.4-9.66,32.2-13.8c6.8-4.13,10.2-9.8,10.2-17v-31.2c0-11.2-2.6-19.93-7.8-26.2
		c-5.2-6.26-13.27-9.4-24.2-9.4c-12.8,0-22.54,3.2-29.2,9.6c7.46,2.67,13.26,6.67,17.4,12c4.13,5.34,6.2,11.6,6.2,18.8
		c0,9.07-3.07,16.27-9.2,21.6c-6.14,5.34-13.6,8-22.4,8c-9.34,0-16.54-2.93-21.6-8.8c-5.07-5.86-7.6-13.2-7.6-22
		c0-7.46,1.8-13.8,5.4-19c3.6-5.2,9.13-10.06,16.6-14.6c7.2-4.26,16.06-7.6,26.6-10c10.53-2.4,22.06-3.6,34.6-3.6
		c13.06,0,24.4,1.34,34,4c9.6,2.67,17.6,7.2,24,13.6c5.86,5.87,9.8,13.07,11.8,21.6c2,8.54,3,20.14,3,34.8v108.8
		c0,6.4,0.6,10.94,1.8,13.6c1.2,2.67,3.53,4,7,4c4,0,8.8-2.26,14.4-6.8l4,6.8c-12,9.87-26.67,14.8-44,14.8
		c-14.67,0-24.94-2.93-30.8-8.8c-5.87-5.86-8.94-13.73-9.2-23.6c-13.34,21.6-32.94,32.4-58.8,32.4
		C434.13,318.1,421.4,313.7,413,304.9z M509.2,276.1v-82c-3.2,5.34-10,11.2-20.4,17.6c-10.4,6.67-18.27,13.34-23.6,20
		c-5.34,6.67-8,16.27-8,28.8c0,10.94,2.26,19,6.8,24.2c4.53,5.2,10.53,7.8,18,7.8C492.4,292.5,501.46,287.04,509.2,276.1z"/>
	<path class="st1" d="M690.8,108.5H738v8h-47.2v161.6c0,8,1.4,13.67,4.2,17c2.8,3.34,7.26,5,13.4,5c11.46,0,20.53-8,27.2-24l6.8,3.6
		c-10.14,27.47-28.4,41.2-54.8,41.2c-17.6,0-30.94-4.54-40-13.6c-5.6-5.6-9.4-12.6-11.4-21s-3-19.93-3-34.6V116.5h-33.6v-8h33.6
		V55.7c22.13,0,41.33-4.26,57.6-12.8V108.5z"/>
	<path class="st1" d="M923.2,256.1l7.2,2.4c-5.34,17.34-14.87,32.07-28.6,44.2c-13.74,12.14-30.87,18.2-51.4,18.2
		c-28.27,0-50.74-9-67.4-27c-16.67-18-25-44.6-25-79.8c0-36,8.93-63.53,26.8-82.6c17.86-19.06,41.6-28.6,71.2-28.6
		c50.13,0,75.2,29.6,75.2,88.8h-112.4c-0.27,4-0.4,10.27-0.4,18.8c0,17.6,2.46,32.27,7.4,44c4.93,11.74,11.33,20.27,19.2,25.6
		c7.86,5.34,16.33,8,25.4,8C892.26,288.1,909.86,277.44,923.2,256.1z M829.79,129.1c-6.27,11.87-10.2,30.2-11.8,55h62.8
		c0.53-21.06-1.54-38.46-6.2-52.2c-4.67-13.73-11.67-20.6-21-20.6C844,111.3,836.06,117.24,829.79,129.1z"/>
	<path class="st1" d="M1120.8,113.7c6.13,7.2,9.2,15.87,9.2,26c0,9.87-2.87,17.94-8.6,24.2c-5.74,6.27-13.27,9.4-22.6,9.4
		c-9.07,0-16.27-2.33-21.6-7c-5.34-4.66-8-10.86-8-18.6c0-12.8,5.86-23.2,17.6-31.2c-1.07-0.26-2.67-0.4-4.8-0.4
		c-2.67,0-4.8,0.27-6.4,0.8c-10.14,1.6-18.74,7.74-25.8,18.4c-7.07,10.67-10.6,21.6-10.6,32.8v106c0,12.27,3,20.8,9,25.6
		c6,4.8,15.53,7.2,28.6,7.2v8.4c-3.74,0-6.8-0.13-9.2-0.4c-27.2-0.8-45.34-1.2-54.4-1.2c-7.2,0-23.6,0.4-49.2,1.2
		c-2.14,0.27-4.8,0.4-8,0.4v-8.4c9.6,0,16.26-2.06,20-6.2c3.73-4.13,5.6-11.66,5.6-22.6v-126c0-12.26-1.87-21.2-5.6-26.8
		c-3.74-5.6-10.4-8.4-20-8.4v-8.4c8.53,0.8,16.8,1.2,24.8,1.2c23.73,0,43.2-1.86,58.4-5.6v37.2c5.06-11.46,12.4-20.73,22-27.8
		c9.6-7.06,20.4-10.6,32.4-10.6S1114.66,106.5,1120.8,113.7z"/>
</g>
</svg>
